<?xml version="1.0" encoding="UTF-8" standalone="no"?>
<svg
   xmlns:dc="http://purl.org/dc/elements/1.1/"
   xmlns:cc="http://creativecommons.org/ns#"
   xmlns:rdf="http://www.w3.org/1999/02/22-rdf-syntax-ns#"
   xmlns:svg="http://www.w3.org/2000/svg"
   xmlns="http://www.w3.org/2000/svg"
   viewBox="0 0 1536 864"
   height="864"
   width="1536"
   xml:space="preserve"
   id="svg2"
   version="1.1"><metadata
     id="metadata8"><rdf:RDF><cc:Work
         rdf:about=""><dc:format>image/svg+xml</dc:format><dc:type
           rdf:resource="http://purl.org/dc/dcmitype/StillImage" /></cc:Work></rdf:RDF></metadata><defs
     id="defs6" /><g
     transform="matrix(1.3333333,0,0,-1.3333333,0,864)"
     id="g10"><path
       id="path12"
       style="fill:#000000;fill-opacity:1;fill-rule:evenodd;stroke:#2b2b2a;stroke-width:0.56690001;stroke-linecap:butt;stroke-linejoin:miter;stroke-miterlimit:22.92558479;stroke-dasharray:none;stroke-opacity:1"
       d="M 0,648 H 1152 V 0 H 0 Z" /><g
       id="g14"><path
         id="path16"
         style="fill:#efc94c;fill-opacity:1;fill-rule:nonzero;stroke:none"
         d="m 235.7388,325.5809 h -1.245 c -2.3859,-2.905 -5.2668,-5.3963 -8.6392,-7.4719 -3.372,-2.0758 -7.7048,-3.1138 -12.9977,-3.1138 -3.9427,0 -7.6529,0.65 -11.1302,1.9465 -3.4758,1.2966 -6.5117,3.0878 -9.1066,5.3706 -2.5928,2.2824 -4.617,5.0323 -6.0704,8.2493 -1.4533,3.2171 -2.1792,6.7462 -2.1792,10.5857 0,3.943 0.7795,7.498 2.3346,10.6634 1.5568,3.1655 3.7358,5.8893 6.5392,8.172 2.8015,2.2827 6.0962,4.0204 9.8839,5.2152 3.7879,1.1931 7.9134,1.7895 12.3752,1.7895 4.981,0 9.0808,-0.3895 12.2978,-1.167 3.217,-0.7793 5.8635,-1.5829 7.9376,-2.4137 v 2.336 c 0,4.0465 -1.6087,7.3928 -4.824,10.0392 -3.2171,2.6464 -7.2134,3.9705 -11.9875,3.9705 -7.0562,0 -13.0232,-2.9585 -17.9007,-8.8736 l -14.7873,10.1183 c 8.0947,10.1701 19.1458,15.2543 33.1555,15.2543 11.8304,0 20.8593,-2.7757 27.0847,-8.327 6.2272,-5.5531 9.341,-13.777 9.341,-24.6731 v -45.7647 h -20.0817 z m 0,22.8835 c -2.3862,1.1412 -4.8515,2.048 -7.3928,2.7238 -2.5429,0.6741 -5.3186,1.0103 -8.329,1.0103 -4.8773,0 -8.6392,-1.0636 -11.2856,-3.1896 -2.6464,-2.1274 -3.9688,-4.748 -3.9688,-7.8616 0,-3.1135 1.2708,-5.6029 3.8137,-7.4718 2.543,-1.8672 5.4737,-2.8018 8.7943,-2.8018 2.6983,0 5.1893,0.4933 7.4721,1.4794 2.2827,0.9842 4.229,2.2825 5.8376,3.8912 1.6087,1.6083 2.8534,3.4755 3.7361,5.6032 0.8827,2.1274 1.3224,4.3325 1.3224,6.6169" /><path
         id="path18"
         style="fill:#efc94c;fill-opacity:1;fill-rule:nonzero;stroke:none"
         d="m 272.0092,393.762 h 19.1475 v -10.5857 h 1.2447 c 0.9345,1.8672 2.1792,3.5808 3.736,5.1359 1.5568,1.557 3.2947,2.9069 5.2152,4.0739 1.9188,1.1415 3.9946,2.0758 6.2257,2.8018 2.2309,0.7015 4.436,1.0635 6.6167,1.0635 2.6983,0 5.0068,-0.2843 6.9256,-0.8549 1.9207,-0.5967 3.5549,-1.3241 4.9033,-2.2586 l -5.4482,-18.2112 c -1.2446,0.6225 -2.6206,1.1154 -4.1238,1.4777 -1.5052,0.3637 -3.348,0.5445 -5.5273,0.5445 -2.8017,0 -5.343,-0.5445 -7.6272,-1.6342 -2.2827,-1.1154 -4.2292,-2.6464 -5.8376,-4.617 -1.6087,-1.9982 -2.8534,-4.3067 -3.7361,-6.9789 -0.881,-2.6465 -1.3223,-5.5517 -1.3223,-8.6653 v -37.5669 h -20.3922 z" /><path
         id="path20"
         style="fill:#efc94c;fill-opacity:1;fill-rule:nonzero;stroke:none"
         d="m 343.692,376.3267 h -13.3875 v 17.4353 h 13.3875 v 23.3487 h 20.3919 V 393.762 h 18.6786 v -17.4353 h -18.6786 v -30.4829 c 0,-1.8173 0.1811,-3.5034 0.5448,-5.0601 0.3623,-1.531 1.0638,-2.8534 2.1016,-3.9172 1.4516,-1.7119 3.5274,-2.5688 6.2257,-2.5688 1.7637,0 3.1652,0.1828 4.2032,0.5448 1.0378,0.3637 2.024,0.8569 2.9569,1.4794 l 5.76,-17.901 c -2.3862,-1.1413 -4.955,-1.9982 -7.7049,-2.5688 -2.7499,-0.5706 -5.7858,-0.8569 -9.1066,-0.8569 -3.8392,0 -7.291,0.5967 -10.351,1.8173 -3.0619,1.2189 -5.6307,2.9049 -7.7065,5.0065 -4.8773,4.7739 -7.3151,11.5444 -7.3151,20.3403 z" /><path
         id="path22"
         style="fill:#efc94c;fill-opacity:1;fill-rule:nonzero;stroke:none"
         d="m 399.3409,428.9411 h 20.3919 v -60.7087 h 0.9346 l 25.5279,25.5296 h 25.2179 v -1.2466 l -28.3314,-27.5519 30.6657,-46.2323 v -1.2446 H 449.621 l -20.8593,33.4672 -9.0289,-8.8719 v -24.5953 h -20.3919 z" /><path
         id="path24"
         style="fill:#efc94c;fill-opacity:1;fill-rule:nonzero;stroke:none"
         d="m 586.7606,383.7988 h 1.245 c 2.3859,3.8393 5.6029,6.8755 9.6511,9.1063 4.0464,2.2309 8.6652,3.3463 13.8546,3.3463 4.7738,0 8.9753,-0.7775 12.6079,-2.3343 3.6326,-1.5568 6.6153,-3.7619 8.9513,-6.6152 2.3343,-2.8551 4.098,-6.279 5.2928,-10.2736 1.1931,-3.9963 1.7896,-8.4322 1.7896,-13.3095 v -46.2322 h -20.3922 v 43.7408 c 0,5.4998 -1.2189,9.5737 -3.6584,12.2202 -2.4378,2.6464 -5.9927,3.9687 -10.6631,3.9687 -2.8018,0 -5.2653,-0.5966 -7.3927,-1.7895 -2.1277,-1.1931 -3.9447,-2.8017 -5.4482,-4.8257 -1.5049,-2.0242 -2.6465,-4.4101 -3.4257,-7.16 -0.7775,-2.7499 -1.167,-5.6823 -1.167,-8.7962 v -37.3583 h -20.3922 v 76.2754 h 19.1472 z" /><path
         id="path26"
         style="fill:#efc94c;fill-opacity:1;fill-rule:nonzero;stroke:none"
         d="m 676.1115,383.7988 h 1.2447 c 2.3862,3.8393 5.6032,6.8755 9.6511,9.1063 4.0464,2.2309 8.6652,3.3463 13.8546,3.3463 4.7738,0 8.9753,-0.7775 12.6079,-2.3343 3.6326,-1.5568 6.6152,-3.7619 8.9513,-6.6152 2.3343,-2.8551 4.098,-6.279 5.2928,-10.2736 1.1931,-3.9963 1.7895,-8.4322 1.7895,-13.3095 v -46.2322 h -20.3918 v 43.7408 c 0,5.4998 -1.2189,9.5737 -3.6584,12.2202 -2.4378,2.6464 -5.993,3.9687 -10.6634,3.9687 -2.8015,0 -5.2654,-0.5966 -7.3928,-1.7895 -2.1274,-1.1931 -3.9447,-2.8017 -5.4479,-4.8257 -1.5052,-2.0242 -2.6464,-4.4101 -3.4256,-7.16 -0.7776,-2.7499 -1.1673,-5.6823 -1.1673,-8.7962 V 317.4866 H 656.964 v 76.2754 h 19.1475 z" /><path
         id="path28"
         style="fill:#efc94c;fill-opacity:1;fill-rule:nonzero;stroke:none"
         d="m 818.5422,335.8545 c -3.5274,-6.2255 -8.2755,-11.2598 -14.2424,-15.099 -5.9669,-3.8396 -13.2579,-5.7603 -21.8713,-5.7603 -5.8118,0 -11.1821,1.0122 -16.1112,3.0362 -4.9292,2.0239 -9.2101,4.8515 -12.8424,8.4841 -3.6309,3.6326 -6.4602,7.9115 -8.4824,12.8423 -2.0242,4.9292 -3.0362,10.3513 -3.0362,16.2664 0,5.4997 0.9862,10.7149 2.9585,15.6441 1.9707,4.9291 4.7206,9.2358 8.2497,12.92 3.5274,3.6842 7.7049,6.6152 12.5303,8.7945 4.8257,2.179 10.1443,3.2686 15.9562,3.2686 6.122,0 11.5702,-1.0119 16.344,-3.0342 4.7738,-2.0239 8.7684,-4.8257 11.9854,-8.4064 3.2174,-3.581 5.6569,-7.81 7.3171,-12.6873 1.6603,-4.8773 2.4911,-10.1684 2.4911,-15.8769 0,-0.7259 0,-1.3498 0,-1.8688 -0.1052,-0.6225 -0.1568,-1.1931 -0.1568,-1.7119 -0.1034,-0.519 -0.1553,-1.0896 -0.1553,-1.7121 h -57.4401 c 0.4155,-3.1136 1.2725,-5.7858 2.5687,-8.0169 1.2983,-2.2309 2.907,-4.0981 4.8257,-5.603 1.9208,-1.5052 4.0224,-2.5948 6.3049,-3.2689 2.2827,-0.6741 4.617,-1.012 7.0049,-1.012 4.6687,0 8.5357,1.0639 11.596,3.1913 3.0617,2.1274 5.4754,4.7996 7.2391,8.0166 z m -18.5233,29.5761 c -0.1034,1.3499 -0.5448,2.8534 -1.324,4.5136 -0.7776,1.6603 -1.9188,3.2171 -3.424,4.6704 -1.5049,1.4536 -3.3721,2.6464 -5.6032,3.581 -2.2309,0.9326 -4.9031,1.3997 -8.0167,1.3997 -4.3586,0 -8.1978,-1.2447 -11.5203,-3.7357 -3.3205,-2.4897 -5.6548,-5.967 -7.0047,-10.429 z" /><path
         id="path30"
         style="fill:#efc94c;fill-opacity:1;fill-rule:nonzero;stroke:none"
         d="m 906.0256,336.9441 c -3.3222,-6.4341 -7.9651,-11.7011 -13.932,-15.7992 -5.9669,-4.0997 -13.413,-6.1497 -22.3384,-6.1497 -5.9154,0 -11.3375,1.0122 -16.2663,3.0362 -4.9292,2.0239 -9.1843,4.8515 -12.765,8.4841 -3.5793,3.6326 -6.3825,7.9115 -8.4048,12.8423 -2.0242,4.9292 -3.0361,10.3513 -3.0361,16.2664 0,5.9153 1.0119,11.3632 3.0361,16.344 2.0223,4.9807 4.8255,9.2616 8.4048,12.8426 3.5807,3.5807 7.8358,6.3825 12.765,8.4064 4.9288,2.0223 10.3509,3.0342 16.2663,3.0342 8.822,0 16.2405,-2.0239 22.261,-6.0704 6.0185,-4.0478 10.4287,-9.2874 13.2302,-15.7215 l -18.6801,-7.7842 c -1.7637,3.5291 -4.0203,6.2016 -6.7702,8.017 -2.7499,1.8172 -6.2014,2.724 -10.3513,2.724 -2.698,0 -5.241,-0.519 -7.6289,-1.5567 -2.3862,-1.0381 -4.4878,-2.4897 -6.3031,-4.3586 -1.8173,-1.8672 -3.2431,-4.1496 -4.2809,-6.8479 -1.0378,-2.698 -1.5568,-5.7084 -1.5568,-9.0289 0,-3.3205 0.519,-6.3307 1.5568,-9.0287 1.0378,-2.6983 2.4636,-4.981 4.2809,-6.8496 1.8153,-1.8672 3.9169,-3.3208 6.3031,-4.3586 2.3879,-1.0377 4.9309,-1.5567 7.6289,-1.5567 4.2551,0 7.8599,0.9603 10.8184,2.8808 2.9568,1.9188 5.3187,4.6947 7.0824,8.3271 z" /><path
         id="path32"
         style="fill:#efc94c;fill-opacity:1;fill-rule:nonzero;stroke:none"
         d="m 926.1057,376.3267 h -13.3872 v 17.4353 h 13.3872 v 23.3487 h 20.3921 V 393.762 h 18.6784 v -17.4353 h -18.6784 v -30.4829 c 0,-1.8173 0.1812,-3.5034 0.5448,-5.0601 0.362,-1.531 1.0639,-2.8534 2.1017,-3.9172 1.4516,-1.7119 3.5274,-2.5688 6.2254,-2.5688 1.7637,0 3.1654,0.1828 4.2032,0.5448 1.0381,0.3637 2.0242,0.8569 2.9568,1.4794 l 5.76,-17.901 c -2.3859,-1.1413 -4.9546,-1.9982 -7.7045,-2.5688 -2.7499,-0.5706 -5.7861,-0.8569 -9.1066,-0.8569 -3.8395,0 -7.291,0.5967 -10.3513,1.8173 -3.0617,1.2189 -5.6307,2.9049 -7.7063,5.0065 -4.8775,4.7739 -7.3153,11.5444 -7.3153,20.3403 z" /><path
         id="path34"
         style="fill:#efc94c;fill-opacity:1;fill-rule:evenodd;stroke:none"
         d="m 180,219.0589 h 792 v 58.1607 H 180 Z" /><path
         id="path36"
         style="fill:#efc94c;fill-opacity:1;fill-rule:nonzero;stroke:none"
         d="m 514.3626,396.0785 c 11.0602,0 21.0742,-4.4835 28.3227,-11.732 7.2484,-7.2485 11.732,-17.2624 11.732,-28.3227 0,-11.0602 -4.4836,-21.0738 -11.732,-28.3226 -7.2485,-7.2482 -17.2625,-11.7318 -28.3227,-11.7318 -11.0602,0 -21.0742,4.4836 -28.3223,11.7318 -7.2488,7.2488 -11.7324,17.2624 -11.7324,28.3226 0,11.0603 4.4836,21.0742 11.7324,28.3227 7.2481,7.2485 17.2621,11.732 28.3223,11.732 z m 26.0113,-14.0437 c -6.6563,6.6566 -15.853,10.774 -26.0113,10.774 -10.1582,0 -19.3547,-4.1171 -26.011,-10.774 -6.6566,-6.6563 -10.7739,-15.8527 -10.7739,-26.011 0,-10.1582 4.1176,-19.3546 10.7739,-26.0112 6.6563,-6.6563 15.8528,-10.7737 26.011,-10.7737 10.1583,0 19.3547,4.1174 26.0113,10.7737 6.6563,6.6566 10.7736,15.853 10.7736,26.0112 0,10.1583 -4.1173,19.3547 -10.7736,26.011" /><path
         id="path38"
         style="fill:#efc94c;fill-opacity:1;fill-rule:nonzero;stroke:none"
         d="m 545.4581,357.6589 c 0.9026,0 1.6348,-0.7322 1.6348,-1.6351 0,-0.9025 -0.7322,-1.6347 -1.6348,-1.6347 h -62.941 c -0.9029,0 -1.6348,0.7322 -1.6348,1.6347 0,0.9029 0.7319,1.6351 1.6348,1.6351 z" /><path
         id="path40"
         style="fill:#efc94c;fill-opacity:1;fill-rule:nonzero;stroke:none"
         d="m 525.1703,366.5296 c 0.1621,-0.885 -0.4241,-1.7345 -1.3091,-1.8967 -0.8849,-0.1621 -1.7345,0.4241 -1.8966,1.3091 l -5.9834,32.5859 v -75.6802 c 0,-0.9025 -0.7322,-1.6347 -1.6347,-1.6347 -0.9029,0 -1.6351,0.7322 -1.6351,1.6347 v 93.6071 h 0.005 c -8e-4,0.7724 0.5497,1.459 1.336,1.603 0.8853,0.1621 1.7345,-0.4241 1.8967,-1.309 l 9.2211,-50.2192 z" /><path
         id="path42"
         style="fill:#efc94c;fill-opacity:1;fill-rule:nonzero;stroke:none"
         d="m 512.7435,416.3689 c 0.1621,0.8853 1.0116,1.4712 1.8966,1.3091 0.8853,-0.1622 1.4715,-1.0114 1.3091,-1.8967 l -9.2977,-50.1457 c -0.1621,-0.885 -1.0114,-1.4712 -1.8966,-1.3091 -0.885,0.1622 -1.4712,1.0117 -1.3091,1.8967 z" /><path
         id="path44"
         style="fill:#efc94c;fill-opacity:1;fill-rule:nonzero;stroke:none"
         d="m 491.398,376.4741 c -0.6381,0.6347 -0.6406,1.6671 -0.006,2.3051 0.6347,0.6381 1.667,0.641 2.3051,0.006 l 43.0708,-42.8295 c 0.638,-0.6347 0.6409,-1.6671 0.006,-2.3052 -0.6347,-0.638 -1.6671,-0.6409 -2.3051,-0.006 L 491.398,376.474 Z" /><path
         id="path46"
         style="fill:#efc94c;fill-opacity:1;fill-rule:nonzero;stroke:none"
         d="m 533.3275,377.5723 c 0.6381,0.6346 1.6705,0.6318 2.3052,-0.006 0.6346,-0.6381 0.6318,-1.6704 -0.006,-2.3051 l -42.1222,-41.9726 c -0.6381,-0.6344 -1.6705,-0.6319 -2.3052,0.006 -0.4405,0.4431 -0.5737,1.0763 -0.4005,1.6345 l 4.8518,15.58 c 0.2681,0.8606 1.1829,1.3408 2.0435,1.073 0.8606,-0.2682 1.3408,-1.1832 1.0726,-2.0438 l -2.893,-9.2872 37.4541,37.3213 z" /><path
         id="path48"
         style="fill:#efc94c;fill-opacity:1;fill-rule:nonzero;stroke:none"
         d="m 515.8661,323.4416 c 0.328,-0.8394 -0.0867,-1.7859 -0.9258,-2.1135 -0.8393,-0.328 -1.7858,0.0867 -2.1135,0.9258 l -9.2183,23.4065 -22.547,9.1621 c -0.8357,0.3385 -1.2388,1.2909 -0.9003,2.1266 0.3385,0.8356 1.2906,1.239 2.1265,0.9003 l 23.1951,-9.4255 c 0.4008,-0.1639 0.737,-0.4848 0.9068,-0.9196 z" /><path
         id="path50"
         style="fill:#efc94c;fill-opacity:1;fill-rule:nonzero;stroke:none"
         d="m 537.2742,335.2065 c 0.8569,-0.2784 1.3258,-1.1991 1.0474,-2.056 -0.2786,-0.8569 -1.1993,-1.3257 -2.0562,-1.0474 l -16.3211,5.3394 c -0.8566,0.2783 -1.3257,1.1993 -1.0471,2.0559 0.2784,0.8569 1.1993,1.3258 2.056,1.0474 z" /><path
         id="path52"
         style="fill:#efc94c;fill-opacity:1;fill-rule:nonzero;stroke:none"
         d="m 515.8661,322.2601 c -0.3243,-0.8391 -1.2679,-1.2563 -2.1073,-0.932 -0.8393,0.3242 -1.2566,1.2679 -0.932,2.1072 l 9.2208,23.707 c 0.1678,0.4343 0.5015,0.7555 0.9006,0.9193 l 19.5168,8.0042 -19.199,8.3174 c -0.8252,0.356 -1.2053,1.3142 -0.8493,2.1393 0.3563,0.8252 1.3144,1.2053 2.1393,0.8493 l 22.68,-9.8255 c 0.4056,-0.1545 0.7492,-0.4697 0.9269,-0.9031 0.3422,-0.8322 -0.0552,-1.7841 -0.8875,-2.1263 l -22.443,-9.2043 z" /><path
         id="path54"
         style="fill:#efc94c;fill-opacity:1;fill-rule:nonzero;stroke:none"
         d="m 534.5844,378.6644 c 0.2537,0.864 1.1602,1.3584 2.0242,1.1047 0.864,-0.2537 1.3584,-1.1599 1.1047,-2.0239 l -4.585,-15.6427 c -0.2537,-0.864 -1.16,-1.3584 -2.024,-1.1047 -0.864,0.2537 -1.3583,1.1599 -1.1046,2.0239 z" /><path
         id="path56"
         style="fill:#efc94c;fill-opacity:1;fill-rule:nonzero;stroke:none"
         d="m 482.2812,354.8225 c -0.8356,-0.3348 -1.7852,0.0712 -2.12,0.9068 -0.3348,0.836 0.0711,1.7853 0.9068,2.1201 l 23.0003,9.2344 c 0.8357,0.335 1.785,-0.0709 2.1198,-0.9068 0.335,-0.8357 -0.0709,-1.7853 -0.9068,-2.1201 z" /><path
         id="path58"
         style="fill:#efc94c;fill-opacity:1;fill-rule:nonzero;stroke:none"
         d="m 498.5138,363.0283 c 0.2574,-0.864 -0.2344,-1.7731 -1.0984,-2.0305 -0.864,-0.2574 -1.7731,0.2341 -2.0305,1.0981 l -4.5445,15.2096 c -0.2573,0.864 0.2342,1.7734 1.0982,2.0308 0.3107,0.0924 0.6267,0.0881 0.9164,0.005 l 13.5451,-3.0478 c 0.8782,-0.1973 1.4301,-1.0696 1.2328,-1.9477 -0.1976,-0.8779 -1.0695,-1.4298 -1.9477,-1.2325 l -10.9188,2.4568 3.7474,-12.5416 z" /><path
         id="path60"
         style="fill:#efc94c;fill-opacity:1;fill-rule:nonzero;stroke:none"
         d="m 535.9317,379.8292 c 0.8708,0.2219 1.7572,-0.3039 1.9792,-1.175 0.2219,-0.8708 -0.3039,-1.7574 -1.1747,-1.9794 l -14.2991,-3.6709 c -0.8708,-0.2219 -1.7572,0.3039 -1.9791,1.175 -0.222,0.8708 0.3038,1.7575 1.1749,1.9794 z" /><path
         id="path62"
         style="fill:#efc94c;fill-opacity:1;fill-rule:nonzero;stroke:none"
         d="m 538.3154,334.1721 c 0.2854,-0.8535 -0.1749,-1.777 -1.0284,-2.0625 -0.8533,-0.2854 -1.7771,0.1749 -2.0625,1.0282 l -5.3895,16.1042 c -0.2855,0.8532 0.1749,1.777 1.0284,2.0624 0.8532,0.2855 1.777,-0.1749 2.0625,-1.0281 z" /><path
         id="path64"
         style="fill:#efc94c;fill-opacity:1;fill-rule:nonzero;stroke:none"
         d="m 492.8145,332.8795 c -0.864,-0.2537 -1.7702,0.241 -2.0239,1.105 -0.254,0.864 0.2406,1.7702 1.1046,2.0239 l 15.4111,4.5502 c 0.864,0.2537 1.7706,-0.241 2.0243,-1.105 0.2537,-0.8637 -0.241,-1.7702 -1.105,-2.0239 z" /><path
         id="path66"
         style="fill:#000000;fill-opacity:1;fill-rule:nonzero;stroke:none"
         d="m 227.4883,237.7128 h -4.7022 v 25.0438 h 4.4978 v -3.4755 h 0.2044 c 0.7154,1.2268 1.8144,2.249 3.2966,3.0668 1.482,0.8175 2.9557,1.2265 4.421,1.2265 1.8399,0 3.4582,-0.426 4.8554,-1.2778 1.3969,-0.8518 2.4191,-2.0274 3.0665,-3.5266 2.0784,3.2029 4.9578,4.8044 8.6375,4.8044 2.8964,0 5.1281,-0.8858 6.6954,-2.6577 1.5676,-1.772 2.3511,-4.2934 2.3511,-7.5643 v -15.6396 h -4.7021 v 14.9241 c 0,2.3511 -0.4258,4.0462 -1.2776,5.0854 -0.8518,1.0392 -2.283,1.5588 -4.2934,1.5588 -1.8059,0 -3.3222,-0.7665 -4.5487,-2.2998 -1.2266,-1.5335 -1.84,-3.3392 -1.84,-5.4178 v -13.8507 h -4.7021 v 14.9241 c 0,2.3511 -0.4258,4.0462 -1.2776,5.0854 -0.8521,1.0392 -2.283,1.5588 -4.2933,1.5588 -1.806,0 -3.3222,-0.7665 -4.5488,-2.2998 -1.2265,-1.5335 -1.8399,-3.3392 -1.8399,-5.4178 z m 88.1968,7.6666 c 0,-1.2268 0.5196,-2.249 1.5591,-3.0668 1.0392,-0.8178 2.2572,-1.2266 3.6541,-1.2266 1.9763,0 3.7398,0.7325 5.29,2.1977 1.5503,1.4653 2.3256,3.1859 2.3256,5.1622 -1.4652,1.1585 -3.5096,1.7377 -6.1333,1.7377 -1.908,0 -3.5011,-0.4601 -4.7787,-1.3799 -1.2778,-0.9202 -1.9168,-2.0614 -1.9168,-3.4243 z m 6.0823,18.195 c 3.4753,0 6.2184,-0.9286 8.2287,-2.7856 2.0101,-1.857 3.0152,-4.4039 3.0152,-7.6408 v -15.4352 h -4.4974 v 3.4756 h -0.2047 c -1.942,-2.8622 -4.5314,-4.2934 -7.7686,-4.2934 -2.7598,0 -5.0683,0.8178 -6.9253,2.4534 -1.857,1.6353 -2.7853,3.6799 -2.7853,6.133 0,2.5898 0.9793,4.6511 2.9386,6.1844 1.9593,1.5333 4.5743,2.3 7.8455,2.3 2.7938,0 5.0938,-0.5111 6.8998,-1.5332 v 1.0732 c 0,1.6356 -0.6474,3.024 -1.9423,4.1655 -1.2949,1.1415 -2.8111,1.7121 -4.5488,1.7121 -2.6237,0 -4.7021,-1.1075 -6.2353,-3.3222 l -4.14,2.6067 c 2.283,3.2709 5.6562,4.9065 10.1199,4.9065 z m 62.7443,-0.8178 h 4.4978 v -3.4755 h 0.2044 c 0.7154,1.2268 1.8144,2.249 3.2967,3.0668 1.4819,0.8175 3.024,1.2265 4.6252,1.2265 3.0666,0 5.4261,-0.8773 7.0787,-2.6322 1.6526,-1.7547 2.4789,-4.2506 2.4789,-7.4875 v -15.7419 h -4.7021 v 15.4352 c -0.1023,4.0887 -2.1637,6.1331 -6.1843,6.1331 -1.874,0 -3.4413,-0.758 -4.7021,-2.2743 -1.2606,-1.5162 -1.891,-3.3307 -1.891,-5.4433 v -13.8507 h -4.7022 z m 77.0551,-17.3772 c 0,-1.2268 0.5196,-2.249 1.559,-3.0668 1.0392,-0.8178 2.2573,-1.2266 3.6542,-1.2266 1.9763,0 3.7397,0.7325 5.29,2.1977 1.5503,1.4653 2.3255,3.1859 2.3255,5.1622 -1.4652,1.1585 -3.5095,1.7377 -6.1333,1.7377 -1.908,0 -3.5011,-0.4601 -4.7786,-1.3799 -1.2779,-0.9202 -1.9168,-2.0614 -1.9168,-3.4243 z m 6.0823,18.195 c 3.4752,0 6.2183,-0.9286 8.2287,-2.7856 2.01,-1.857 3.0152,-4.4039 3.0152,-7.6408 v -15.4352 h -4.4975 v 3.4756 h -0.2046 c -1.942,-2.8622 -4.5315,-4.2934 -7.7687,-4.2934 -2.7598,0 -5.0683,0.8178 -6.9253,2.4534 -1.857,1.6353 -2.7853,3.6799 -2.7853,6.133 0,2.5898 0.9794,4.6511 2.9387,6.1844 1.9593,1.5333 4.5742,2.3 7.8454,2.3 2.7938,0 5.0939,-0.5111 6.8998,-1.5332 v 1.0732 c 0,1.6356 -0.6474,3.024 -1.9423,4.1655 -1.2948,1.1415 -2.8111,1.7121 -4.5487,1.7121 -2.6238,0 -4.7021,-1.1075 -6.2354,-3.3222 l -4.14,2.6067 c 2.283,3.2709 5.6563,4.9065 10.12,4.9065 z m 73.7331,-22.386 c 2.317,0 4.208,0.8348 5.6732,2.5044 1.5333,1.6693 2.2998,3.85 2.2998,6.5418 0,2.6237 -0.7665,4.7874 -2.2998,6.491 -1.4992,1.7037 -3.3905,2.5555 -5.6732,2.5555 -2.2488,0 -4.14,-0.8518 -5.6733,-2.5555 -1.5332,-1.7036 -2.3,-3.8673 -2.3,-6.491 0,-2.6575 0.7668,-4.8212 2.3,-6.4908 1.5333,-1.7036 3.4245,-2.5554 5.6733,-2.5554 z m -0.1534,-15.3332 c -1.3969,0 -2.7088,0.1792 -3.9353,0.5369 -1.2269,0.3577 -2.3426,0.8603 -3.3477,1.5077 -1.0052,0.6472 -1.8655,1.414 -2.5813,2.2998 -0.7154,0.8861 -1.2605,1.874 -1.6353,2.9645 l 4.4465,1.8399 c 0.511,-1.4652 1.3969,-2.6407 2.6577,-3.5266 1.2606,-0.8858 2.7258,-1.3288 4.3954,-1.3288 2.5555,0 4.5488,0.7667 5.98,2.3 1.4309,1.5333 2.1464,3.6456 2.1464,6.3374 v 2.4024 h -0.2044 c -0.8858,-1.3289 -2.0869,-2.3766 -3.6031,-3.1434 -1.5163,-0.7667 -3.1604,-1.15 -4.9323,-1.15 -3.2709,0 -6.082,1.2779 -8.4331,3.8333 -2.317,2.6238 -3.4752,5.7923 -3.4752,9.5063 0,3.7142 1.1582,6.8658 3.4752,9.4555 2.3511,2.5895 5.1622,3.8843 8.4331,3.8843 1.7719,0 3.416,-0.3832 4.9323,-1.15 1.5162,-0.7668 2.7173,-1.8144 3.6031,-3.1433 h 0.2044 v 3.4755 h 4.4977 V 238.786 c 0,-4.0206 -1.1415,-7.1722 -3.4242,-9.4552 -2.3171,-2.3171 -5.3836,-3.4756 -9.1999,-3.4756 z m 75.5221,11.0398 c -3.68,0 -6.7125,1.2609 -9.0975,3.7823 -2.3851,2.5214 -3.5777,5.7073 -3.5777,9.5573 0,3.8163 1.1583,6.9936 3.4753,9.532 2.3171,2.5385 5.2815,3.8078 8.8932,3.8078 3.7139,0 6.6699,-1.201 8.8676,-3.6034 2.1977,-2.4021 3.2964,-5.7668 3.2964,-10.0941 l -0.051,-0.5111 h -19.6773 c 0.068,-2.4531 0.8858,-4.4295 2.4534,-5.9287 1.5673,-1.4992 3.4413,-2.2487 5.6219,-2.2487 2.9985,0 5.3496,1.4992 7.0532,4.4974 l 4.191,-2.0443 c -1.1245,-2.1124 -2.6832,-3.765 -4.6766,-4.9575 -1.9933,-1.1926 -4.2505,-1.789 -6.7719,-1.789 z m -7.5133,16.3551 h 14.3621 c -0.1364,1.7379 -0.8434,3.1773 -2.1212,4.3188 -1.2779,1.1416 -2.99,1.7122 -5.1367,1.7122 -1.7716,0 -3.2964,-0.5451 -4.5742,-1.6353 -1.2776,-1.0905 -2.1209,-2.5558 -2.53,-4.3957 z m 74.5509,-15.5373 h -4.7021 v 25.0438 h 4.4978 v -3.4755 h 0.2043 c 0.7155,1.2268 1.8145,2.249 3.2967,3.0668 1.482,0.8175 2.9557,1.2265 4.4209,1.2265 1.84,0 3.4583,-0.426 4.8555,-1.2778 1.3969,-0.8518 2.4191,-2.0274 3.0665,-3.5266 2.0784,3.2029 4.9578,4.8044 8.6375,4.8044 2.8964,0 5.1281,-0.8858 6.6954,-2.6577 1.5676,-1.772 2.3511,-4.2934 2.3511,-7.5643 V 237.7128 H 712.41 v 14.9241 c 0,2.3511 -0.4258,4.0462 -1.2776,5.0854 -0.8518,1.0392 -2.283,1.5588 -4.2934,1.5588 -1.8059,0 -3.3222,-0.7665 -4.5487,-2.2998 -1.2266,-1.5335 -1.84,-3.3392 -1.84,-5.4178 v -13.8507 h -4.7021 v 14.9241 c 0,2.3511 -0.4258,4.0462 -1.2776,5.0854 -0.8521,1.0392 -2.283,1.5588 -4.2933,1.5588 -1.806,0 -3.3222,-0.7665 -4.5488,-2.2998 -1.2265,-1.5335 -1.84,-3.3392 -1.84,-5.4178 z m 96.2725,-0.8178 c -3.6799,0 -6.7124,1.2609 -9.0975,3.7823 -2.385,2.5214 -3.5776,5.7073 -3.5776,9.5573 0,3.8163 1.1583,6.9936 3.4753,9.532 2.317,2.5385 5.2815,3.8078 8.8931,3.8078 3.714,0 6.67,-1.201 8.8677,-3.6034 2.1977,-2.4021 3.2964,-5.7668 3.2964,-10.0941 l -0.0511,-0.5111 h -19.6772 c 0.068,-2.4531 0.8858,-4.4295 2.4534,-5.9287 1.5672,-1.4992 3.4412,-2.2487 5.6219,-2.2487 2.9985,0 5.3496,1.4992 7.0532,4.4974 l 4.191,-2.0443 c -1.1245,-2.1124 -2.6833,-3.765 -4.6766,-4.9575 -1.9933,-1.1926 -4.2505,-1.789 -6.772,-1.789 z m -7.5132,16.3551 h 14.362 c -0.1363,1.7379 -0.8433,3.1773 -2.1211,4.3188 -1.2779,1.1416 -2.99,1.7122 -5.1367,1.7122 -1.7717,0 -3.2964,-0.5451 -4.5743,-1.6353 -1.2775,-1.0905 -2.1208,-2.5558 -2.5299,-4.3957 z m 69.8488,9.5065 h 4.4977 v -3.4755 h 0.2044 c 0.7155,1.2268 1.8145,2.249 3.2967,3.0668 1.482,0.8175 3.024,1.2265 4.6253,1.2265 3.0665,0 5.4261,-0.8773 7.0787,-2.6322 1.6526,-1.7547 2.4789,-4.2506 2.4789,-7.4875 v -15.7419 h -4.7021 v 15.4352 c -0.1024,4.0887 -2.1637,6.1331 -6.1844,6.1331 -1.874,0 -3.4412,-0.758 -4.7021,-2.2743 -1.2606,-1.5162 -1.891,-3.3307 -1.891,-5.4433 v -13.8507 h -4.7021 z m 82.5239,-25.4525 c -2.0443,0 -3.7395,0.6301 -5.0854,1.891 -1.3458,1.2605 -2.0358,3.0155 -2.0701,5.2642 v 14.004 h -4.3954 v 4.2933 h 4.3954 v 7.6666 h 4.7021 v -7.6666 h 6.1333 v -4.2933 h -6.1333 v -12.4708 c 0,-1.6696 0.3237,-2.8023 0.9712,-3.3987 0.6474,-0.5964 1.3799,-0.8943 2.1977,-0.8943 0.3747,0 0.7412,0.0425 1.099,0.1275 0.3577,0.0853 0.6899,0.1962 0.9966,0.3322 l 1.4823,-4.1907 c -1.2269,-0.4431 -2.6578,-0.6644 -4.2934,-0.6644" /></g></g></svg>