<?xml version="1.0" encoding="UTF-8"?>
<!DOCTYPE svg PUBLIC "-//W3C//DTD SVG 1.1//EN" "http://www.w3.org/Graphics/SVG/1.1/DTD/svg11.dtd">
<svg xmlns="http://www.w3.org/2000/svg" version="1.1" width="860px" height="899px" style="shape-rendering:geometricPrecision; text-rendering:geometricPrecision; image-rendering:optimizeQuality; fill-rule:evenodd; clip-rule:evenodd" xmlns:xlink="http://www.w3.org/1999/xlink">
<g><path style="opacity:1" fill="#f1f0ed" d="M 426.5,161.5 C 431.5,161.5 436.5,161.5 441.5,161.5C 449.6,163.271 457.933,164.271 466.5,164.5C 467.167,164.5 467.833,164.5 468.5,164.5C 468.611,165.117 468.944,165.617 469.5,166C 474.481,166.748 479.481,167.248 484.5,167.5C 484.611,168.117 484.944,168.617 485.5,169C 489.17,169.548 492.837,170.048 496.5,170.5C 500.8,170.755 504.8,171.755 508.5,173.5C 514.194,177.188 520.528,179.521 527.5,180.5C 532.895,181.704 537.895,183.704 542.5,186.5C 555.095,193.468 567.762,200.468 580.5,207.5C 623.132,234.792 655.466,271.125 677.5,316.5C 678.367,320.329 680.033,323.663 682.5,326.5C 690.322,341.962 695.989,358.295 699.5,375.5C 699.551,380.187 700.551,384.521 702.5,388.5C 704.24,394.339 705.24,400.339 705.5,406.5C 706.809,430.502 706.809,454.502 705.5,478.5C 705.5,478.833 705.5,479.167 705.5,479.5C 704.028,483.919 703.362,488.586 703.5,493.5C 700.407,502.875 698.074,512.542 696.5,522.5C 692.835,528.115 690.835,534.448 690.5,541.5C 689.262,546.895 687.262,551.895 684.5,556.5C 680.479,561.875 677.479,567.875 675.5,574.5C 659.01,606.444 637.01,634.11 609.5,657.5C 607.251,658.08 605.585,659.413 604.5,661.5C 591.384,672.897 577.051,682.564 561.5,690.5C 557.342,691.672 553.675,693.672 550.5,696.5C 545.446,697.197 541.113,699.197 537.5,702.5C 531.871,703.929 526.537,705.929 521.5,708.5C 517.902,710.74 513.902,712.074 509.5,712.5C 502.513,713.99 495.513,715.49 488.5,717C 487.944,717.383 487.611,717.883 487.5,718.5C 487.167,718.5 486.833,718.5 486.5,718.5C 474.627,720.817 462.627,722.317 450.5,723C 449.584,723.278 448.918,723.778 448.5,724.5C 447.5,724.5 446.5,724.5 445.5,724.5C 432.833,724.5 420.167,724.5 407.5,724.5C 383.807,723.718 360.807,719.385 338.5,711.5C 334.183,709.06 329.517,707.393 324.5,706.5C 272.699,686.55 230.199,654.217 197,609.5C 194.579,605.929 192.413,602.262 190.5,598.5C 187.332,592.158 183.665,586.158 179.5,580.5C 173.19,570.878 168.19,560.545 164.5,549.5C 164.191,545.577 162.858,542.243 160.5,539.5C 159.322,533.792 157.822,528.126 156,522.5C 155.617,521.944 155.117,521.611 154.5,521.5C 153.962,519.883 153.629,518.216 153.5,516.5C 153.364,510.452 152.03,504.785 149.5,499.5C 148.795,491.271 147.462,483.271 145.5,475.5C 144.634,457.515 144.3,439.515 144.5,421.5C 145.055,405.021 147.721,389.021 152.5,373.5C 155.541,368.342 157.207,362.675 157.5,356.5C 158.065,352.463 159.399,348.797 161.5,345.5C 164.741,339.119 167.408,332.452 169.5,325.5C 178.704,304.325 190.704,284.992 205.5,267.5C 210.636,262.55 215.302,257.217 219.5,251.5C 229.542,242.157 239.542,232.824 249.5,223.5C 260.063,213.945 271.73,205.945 284.5,199.5C 298.292,193.104 311.959,186.437 325.5,179.5C 334.149,177.616 342.483,174.949 350.5,171.5C 355.503,169.294 360.836,167.961 366.5,167.5C 386.375,164.432 406.375,162.432 426.5,161.5 Z"/></g>
<g><path style="opacity:1" fill="#8b8b8a" d="M 426.5,161.5 C 406.375,162.432 386.375,164.432 366.5,167.5C 373.907,165.373 381.574,163.873 389.5,163C 399.491,162.056 409.491,161.223 419.5,160.5C 422.025,160.503 424.359,160.837 426.5,161.5 Z"/></g>
<g><path style="opacity:1" fill="#7d7d7b" d="M 441.5,161.5 C 448.86,161.558 456.194,162.058 463.5,163C 464.737,163.232 465.737,163.732 466.5,164.5C 457.933,164.271 449.6,163.271 441.5,161.5 Z"/></g>
<g><path style="opacity:0.427" fill="#868686" d="M 468.5,164.5 C 474.076,164.871 479.409,165.871 484.5,167.5C 479.481,167.248 474.481,166.748 469.5,166C 468.944,165.617 468.611,165.117 468.5,164.5 Z"/></g>
<g><path style="opacity:0.09" fill="#797979" d="M 484.5,167.5 C 488.8,167.755 492.8,168.755 496.5,170.5C 492.837,170.048 489.17,169.548 485.5,169C 484.944,168.617 484.611,168.117 484.5,167.5 Z"/></g>
<g><path style="opacity:1" fill="#fdbb03" d="M 407.5,168.5 C 509.428,166.053 590.595,205.386 651,286.5C 705.547,370.505 714.214,459.171 677,552.5C 631.317,649.127 555.151,703.627 448.5,716C 350.817,721.46 270.984,686.626 209,611.5C 155.34,538.533 139.34,457.866 161,369.5C 191.067,273.099 254.234,209.599 350.5,179C 369.365,173.969 388.365,170.469 407.5,168.5 Z"/></g>
<g><path style="opacity:1" fill="#9a9a99" d="M 508.5,173.5 C 515.425,174.473 521.758,176.806 527.5,180.5C 520.528,179.521 514.194,177.188 508.5,173.5 Z"/></g>
<g><path style="opacity:0.686" fill="#8c8c8c" d="M 350.5,171.5 C 342.483,174.949 334.149,177.616 325.5,179.5C 333.498,176.057 341.831,173.391 350.5,171.5 Z"/></g>
<g><path style="opacity:1" fill="#a4a4a3" d="M 325.5,179.5 C 311.959,186.437 298.292,193.104 284.5,199.5C 297.177,190.996 310.843,184.329 325.5,179.5 Z"/></g>
<g><path style="opacity:0.6" fill="#828282" d="M 542.5,186.5 C 556.076,191.952 568.743,198.952 580.5,207.5C 567.762,200.468 555.095,193.468 542.5,186.5 Z"/></g>
<g><path style="opacity:1" fill="#184889" d="M 273.5,246.5 C 274.376,246.369 275.043,246.702 275.5,247.5C 280.534,257.474 280.701,267.474 276,277.5C 274.649,279.019 273.149,280.352 271.5,281.5C 271.167,281.167 270.833,280.833 270.5,280.5C 272.079,276.28 272.579,271.947 272,267.5C 270.919,272.236 269.586,276.903 268,281.5C 263.411,272.9 263.411,264.233 268,255.5C 269.856,252.444 271.689,249.444 273.5,246.5 Z"/></g>
<g><path style="opacity:1" fill="#1b4889" d="M 574.5,246.5 C 585.36,256.284 587.86,267.951 582,281.5C 580.414,276.903 579.081,272.236 578,267.5C 577.658,272.106 578.158,276.606 579.5,281C 574.729,279.398 571.895,275.898 571,270.5C 569.669,262.088 570.836,254.088 574.5,246.5 Z"/></g>
<g><path style="opacity:0.6" fill="#8a8a8a" d="M 249.5,223.5 C 239.542,232.824 229.542,242.157 219.5,251.5C 223.233,246.26 227.566,241.426 232.5,237C 237.773,231.882 243.439,227.382 249.5,223.5 Z"/></g>
<g><path style="opacity:1" fill="#18488a" d="M 302.5,272.5 C 300.265,272.795 298.265,272.461 296.5,271.5C 299.824,269.833 302.824,267.666 305.5,265C 301.971,266.592 298.305,267.926 294.5,269C 299.706,257.3 308.706,250.8 321.5,249.5C 319.47,258.397 314.803,265.563 307.5,271C 305.846,271.608 304.179,272.108 302.5,272.5 Z"/></g>
<g><path style="opacity:1" fill="#14478a" d="M 553.5,271.5 C 551.393,272.468 549.059,272.802 546.5,272.5C 536.316,268.128 530.483,260.461 529,249.5C 542.255,251.111 550.922,258.111 555,270.5C 551.333,268.167 547.667,265.833 544,263.5C 543.333,264.167 543.333,264.833 544,265.5C 547.11,267.636 550.277,269.636 553.5,271.5 Z"/></g>
<g><path style="opacity:0.773" fill="#9b9b9b" d="M 219.5,251.5 C 215.302,257.217 210.636,262.55 205.5,267.5C 209.226,261.409 213.893,256.075 219.5,251.5 Z"/></g>
<g><path style="opacity:1" fill="#607159" d="M 296.5,271.5 C 298.265,272.461 300.265,272.795 302.5,272.5C 300.307,273.797 297.973,273.797 295.5,272.5C 295.624,271.893 295.957,271.56 296.5,271.5 Z"/></g>
<g><path style="opacity:1" fill="#6a7554" d="M 553.5,271.5 C 554.043,271.56 554.376,271.893 554.5,272.5C 551.691,273.8 549.024,273.8 546.5,272.5C 549.059,272.802 551.393,272.468 553.5,271.5 Z"/></g>
<g><path style="opacity:1" fill="#11478b" d="M 244.5,273.5 C 252.277,281.724 254.777,291.39 252,302.5C 251.252,304.332 250.252,305.999 249,307.5C 248.828,303.129 248.328,298.796 247.5,294.5C 246.696,300.206 245.696,305.873 244.5,311.5C 238.793,303.77 236.96,295.103 239,285.5C 240.363,281.225 242.197,277.225 244.5,273.5 Z"/></g>
<g><path style="opacity:1" fill="#174889" d="M 603.5,273.5 C 604.496,273.414 605.329,273.748 606,274.5C 613.654,287.175 613.32,299.508 605,311.5C 603.485,305.925 602.485,300.258 602,294.5C 601.667,299.167 601.333,303.833 601,308.5C 596.066,300.809 595.233,292.643 598.5,284C 600.058,280.387 601.725,276.887 603.5,273.5 Z"/></g>
<g><path style="opacity:1" fill="#94928e" d="M 403.5,282.5 C 403.897,281.475 404.563,281.308 405.5,282C 433.654,309.131 444.154,341.965 437,380.5C 430.333,403.167 423.667,425.833 417,448.5C 414.815,459.599 418.315,468.432 427.5,475C 440.398,479.598 448.898,475.431 453,462.5C 453.611,453.156 453.444,443.823 452.5,434.5C 453.43,419.201 458.763,405.701 468.5,394C 470.791,391.66 473.458,390.327 476.5,390C 471.381,398.256 469.048,407.256 469.5,417C 469.672,430.185 471.839,443.018 476,455.5C 480.286,483.18 469.12,501.014 442.5,509C 408.319,513.318 388.152,498.485 382,464.5C 380.71,448.657 383.71,433.657 391,419.5C 399.97,401.894 408.637,384.228 417,366.5C 421.211,355.016 421.377,343.516 417.5,332C 407.239,342.577 396.072,353.411 384,364.5C 374.128,376.858 371.295,390.691 375.5,406C 374.833,406.667 374.167,406.667 373.5,406C 368.168,400.986 365.001,394.819 364,387.5C 361.206,369.553 365.873,353.887 378,340.5C 388.518,331.119 396.852,320.119 403,307.5C 406.017,299.075 406.183,290.742 403.5,282.5 Z"/></g>
<g><path style="opacity:1" fill="#fdfdfd" d="M 407.5,287.5 C 434.443,315.709 443.277,349.042 434,387.5C 427.351,408.103 421.018,428.769 415,449.5C 412.664,466.891 419.997,476.891 437,479.5C 447.146,478.357 453.146,472.69 455,462.5C 454.668,451.511 454.668,440.511 455,429.5C 456.642,415.563 462.309,403.563 472,393.5C 472.167,393.833 472.333,394.167 472.5,394.5C 468.667,401.822 466.667,409.655 466.5,418C 467.245,430.904 469.745,443.404 474,455.5C 477.71,481.925 466.876,499.092 441.5,507C 410.513,510.102 391.346,496.602 384,466.5C 382.766,455.936 383.766,445.603 387,435.5C 394.382,416.736 403.382,398.736 414,381.5C 421.007,367.163 423.34,352.163 421,336.5C 420.101,332.462 418.434,328.795 416,325.5C 414.435,329.4 412.435,333.066 410,336.5C 400.637,346.197 390.97,355.53 381,364.5C 373.018,374.687 369.685,386.354 371,399.5C 362.264,380.759 363.93,363.093 376,346.5C 385.043,336.459 393.71,326.126 402,315.5C 406.964,306.817 408.797,297.483 407.5,287.5 Z"/></g>
<g><path style="opacity:1" fill="#16488a" d="M 293.5,290.5 C 301.918,289.365 309.584,291.198 316.5,296C 306.214,304.988 294.548,307.488 281.5,303.5C 280.167,302.833 280.167,302.167 281.5,301.5C 285.494,300.335 289.494,299.168 293.5,298C 289.364,297.329 285.364,297.829 281.5,299.5C 280.479,298.998 280.312,298.332 281,297.5C 284.464,293.69 288.631,291.356 293.5,290.5 Z"/></g>
<g><path style="opacity:1" fill="#17488a" d="M 546.5,290.5 C 555.127,289.527 562.627,291.86 569,297.5C 569.688,298.332 569.521,298.998 568.5,299.5C 564.572,298.233 560.572,297.733 556.5,298C 560.876,299.403 565.21,300.903 569.5,302.5C 556.161,308.083 544.161,305.916 533.5,296C 537.383,292.879 541.717,291.046 546.5,290.5 Z"/></g>
<g><path style="opacity:1" fill="#304e82" d="M 260.5,291.5 C 261.5,291.5 262.5,291.5 263.5,291.5C 262.754,295.31 261.754,295.31 260.5,291.5 Z"/></g>
<g><path style="opacity:1" fill="#3c5579" d="M 585.5,291.5 C 586.978,291.238 588.311,291.571 589.5,292.5C 587.537,295.194 586.203,294.861 585.5,291.5 Z"/></g>
<g><path style="opacity:1" fill="#3f557a" d="M 265.5,310.5 C 267.346,310.222 268.68,310.889 269.5,312.5C 268.68,314.111 267.346,314.778 265.5,314.5C 265.5,313.167 265.5,311.833 265.5,310.5 Z"/></g>
<g><path style="opacity:1" fill="#36527d" d="M 581.5,310.5 C 582.5,310.5 583.5,310.5 584.5,310.5C 584.5,311.833 584.5,313.167 584.5,314.5C 581.046,314.733 580.046,313.4 581.5,310.5 Z"/></g>
<g><path style="opacity:1" fill="#19488a" d="M 208.5,314.5 C 222.641,322.45 228.475,334.45 226,350.5C 225.581,351.672 224.915,352.672 224,353.5C 223.122,348.198 221.455,343.198 219,338.5C 219.56,343.308 220.393,348.141 221.5,353C 221.167,353.833 220.833,354.667 220.5,355.5C 209.309,346.109 204.809,334.109 207,319.5C 208.009,317.975 208.509,316.308 208.5,314.5 Z"/></g>
<g><path style="opacity:1" fill="#13478b" d="M 639.5,314.5 C 640.931,314.881 641.764,315.881 642,317.5C 643.885,328.46 642.218,338.793 637,348.5C 634.651,351.017 632.151,353.35 629.5,355.5C 629.167,354.333 628.833,353.167 628.5,352C 629.351,347.089 630.184,342.255 631,337.5C 628.867,342.733 627.034,348.066 625.5,353.5C 621.132,344.092 621.966,335.092 628,326.5C 631.364,321.971 635.197,317.971 639.5,314.5 Z"/></g>
<g><path style="opacity:1" fill="#244c85" d="M 567.5,282.5 C 567.897,281.475 568.563,281.308 569.5,282C 621.424,335.775 642.591,399.942 633,474.5C 620.622,546.966 582.788,601.633 519.5,638.5C 517.404,637.38 517.07,635.88 518.5,634C 582.45,596.664 619.95,541.164 631,467.5C 638.761,395.609 617.594,333.942 567.5,282.5 Z"/></g>
<g><path style="opacity:1" fill="#0f468b" d="M 269.5,319.5 C 278.21,318.714 286.543,320.048 294.5,323.5C 283.803,336.456 270.469,340.623 254.5,336C 258.724,333.721 263.057,331.721 267.5,330C 262.389,330.596 257.389,331.596 252.5,333C 256.602,326.385 262.268,321.885 269.5,319.5 Z"/></g>
<g><path style="opacity:1" fill="#12478b" d="M 566.5,319.5 C 579.686,317.72 590.019,322.22 597.5,333C 592.966,332.338 588.466,331.172 584,329.5C 582.278,329.611 582.112,330.111 583.5,331C 587.729,332.115 591.729,333.781 595.5,336C 583.014,340.68 571.68,338.68 561.5,330C 559.317,327.65 556.984,325.483 554.5,323.5C 558.413,321.533 562.413,320.199 566.5,319.5 Z"/></g>
<g><path style="opacity:0.631" fill="#858585" d="M 677.5,316.5 C 679.979,319.344 681.646,322.678 682.5,326.5C 680.033,323.663 678.367,320.329 677.5,316.5 Z"/></g>
<g><path style="opacity:1" fill="#1c4a87" d="M 233.5,328.5 C 236.956,329.536 237.29,331.203 234.5,333.5C 232.296,332.218 231.962,330.551 233.5,328.5 Z"/></g>
<g><path style="opacity:1" fill="#335080" d="M 613.5,328.5 C 617.161,328.35 618.161,329.85 616.5,333C 613.273,332.944 612.273,331.444 613.5,328.5 Z"/></g>
<g><path style="opacity:1" fill="#8e8e8d" d="M 169.5,325.5 C 167.408,332.452 164.741,339.119 161.5,345.5C 163.085,338.341 165.751,331.674 169.5,325.5 Z"/></g>
<g><path style="opacity:1" fill="#284c84" d="M 279.5,281.5 C 280.552,281.351 281.552,281.517 282.5,282C 224.222,343.54 205.055,415.707 225,498.5C 242.266,558.088 277.766,603.255 331.5,634C 332.93,635.88 332.596,637.38 330.5,638.5C 248.937,588.727 210.437,515.727 215,419.5C 221.192,366.126 242.692,320.126 279.5,281.5 Z"/></g>
<g><path style="opacity:1" fill="#154889" d="M 239.5,355.5 C 240.833,355.5 242.167,355.5 243.5,355.5C 243.833,358.5 242.5,359.833 239.5,359.5C 239.5,358.167 239.5,356.833 239.5,355.5 Z"/></g>
<g><path style="opacity:1" fill="#2a4d84" d="M 607.5,354.5 C 610.389,354.999 611.056,356.499 609.5,359C 608.552,359.483 607.552,359.649 606.5,359.5C 606.366,357.708 606.699,356.042 607.5,354.5 Z"/></g>
<g><path style="opacity:1" fill="#10468b" d="M 255.5,362.5 C 259.182,362.335 262.848,362.501 266.5,363C 261.587,375.58 252.921,384.58 240.5,390C 236.848,390.889 233.182,391.222 229.5,391C 233.2,386.965 237.2,383.298 241.5,380C 239.721,380.044 238.055,380.711 236.5,382C 225.919,391.695 224.419,389.529 232,375.5C 238.411,368.382 246.244,364.049 255.5,362.5 Z"/></g>
<g><path style="opacity:1" fill="#11478b" d="M 583.5,363.5 C 593.823,362.001 603.49,364.168 612.5,370C 618.782,375.063 621.949,381.563 622,389.5C 618.107,385.806 613.94,382.473 609.5,379.5C 609.167,379.667 608.833,379.833 608.5,380C 612.647,382.98 616.314,386.48 619.5,390.5C 612.159,391.447 605.493,389.613 599.5,385C 592.551,378.89 587.217,371.723 583.5,363.5 Z"/></g>
<g><path style="opacity:0.631" fill="#838382" d="M 157.5,356.5 C 157.207,362.675 155.541,368.342 152.5,373.5C 153.354,367.495 155.021,361.828 157.5,356.5 Z"/></g>
<g><path style="opacity:1" fill="#12478b" d="M 180.5,378.5 C 195.176,381.676 205.009,390.343 210,404.5C 210.824,407.882 210.657,411.216 209.5,414.5C 206.249,408.996 202.749,403.662 199,398.5C 198.833,399 198.667,399.5 198.5,400C 202.105,405.043 204.771,410.543 206.5,416.5C 193.322,412.204 185.155,403.204 182,389.5C 180.892,385.914 180.392,382.247 180.5,378.5 Z"/></g>
<g><path style="opacity:1" fill="#11478b" d="M 666.5,378.5 C 667.5,378.5 668.5,378.5 669.5,378.5C 669.168,396.874 660.668,409.541 644,416.5C 643.5,416.333 643,416.167 642.5,416C 654.77,393.372 653.936,392.872 640,414.5C 638.534,402.592 642.701,393.092 652.5,386C 657.101,383.202 661.768,380.702 666.5,378.5 Z"/></g>
<g><path style="opacity:1" fill="#204a86" d="M 211.5,383.5 C 212.833,383.5 214.167,383.5 215.5,383.5C 215.99,385.948 215.157,387.615 213,388.5C 210.389,387.5 209.889,385.833 211.5,383.5 Z"/></g>
<g><path style="opacity:1" fill="#224b86" d="M 634.5,383.5 C 638.138,382.737 639.638,384.07 639,387.5C 635.331,389.009 633.831,387.676 634.5,383.5 Z"/></g>
<g><path style="opacity:0.561" fill="#838383" d="M 699.5,375.5 C 701.237,379.542 702.237,383.876 702.5,388.5C 700.551,384.521 699.551,380.187 699.5,375.5 Z"/></g>
<g><path style="opacity:1" fill="#0f468b" d="M 252.5,407.5 C 254.199,407.34 255.866,407.506 257.5,408C 255.1,423.488 247.434,435.488 234.5,444C 231.388,445.306 228.221,446.472 225,447.5C 224.5,447.167 224,446.833 223.5,446.5C 226.919,441.643 229.753,436.643 232,431.5C 228.31,435.689 224.81,440.022 221.5,444.5C 220.455,431.758 225.455,421.925 236.5,415C 241.804,412.178 247.137,409.678 252.5,407.5 Z"/></g>
<g><path style="opacity:1" fill="#0e468b" d="M 628.5,437.5 C 628.802,440.059 628.468,442.393 627.5,444.5C 624.891,439.617 621.557,435.284 617.5,431.5C 617.167,431.667 616.833,431.833 616.5,432C 620.329,436.656 623.663,441.656 626.5,447C 616.788,445.992 608.955,441.492 603,433.5C 597.711,425.753 594.211,417.253 592.5,408C 606.059,409.363 616.892,415.53 625,426.5C 627.076,429.893 628.242,433.56 628.5,437.5 Z"/></g>
<g><path style="opacity:1" fill="#284c84" d="M 226.5,409.5 C 230.161,409.35 231.161,410.85 229.5,414C 224.967,414.413 223.967,412.913 226.5,409.5 Z"/></g>
<g><path style="opacity:1" fill="#194988" d="M 620.5,409.5 C 624.161,409.35 625.161,410.85 623.5,414C 619.707,414.487 618.707,412.987 620.5,409.5 Z"/></g>
<g><path style="opacity:1" fill="#274b86" d="M 200.5,434.5 C 202.167,434.5 203.833,434.5 205.5,434.5C 205.5,436.167 205.5,437.833 205.5,439.5C 203.833,439.5 202.167,439.5 200.5,439.5C 200.5,437.833 200.5,436.167 200.5,434.5 Z"/></g>
<g><path style="opacity:1" fill="#2e4d84" d="M 644.5,434.5 C 646.167,434.5 647.833,434.5 649.5,434.5C 649.985,439.159 648.152,440.492 644,438.5C 643.421,437.072 643.588,435.738 644.5,434.5 Z"/></g>
<g><path style="opacity:0.436" fill="#6d6d6c" d="M 144.5,421.5 C 144.3,439.515 144.634,457.515 145.5,475.5C 143.947,465.383 143.281,455.049 143.5,444.5C 143.5,436.659 143.834,428.993 144.5,421.5 Z"/></g>
<g><path style="opacity:1" fill="#0f468b" d="M 167.5,439.5 C 183.01,439.507 195.51,445.507 205,457.5C 207.33,461.836 208.496,466.169 208.5,470.5C 204.453,465.069 199.787,461.069 194.5,458.5C 199.398,463.228 203.731,468.394 207.5,474C 193.385,473.69 182.551,467.523 175,455.5C 171.826,450.475 169.326,445.142 167.5,439.5 Z"/></g>
<g><path style="opacity:1" fill="#11478b" d="M 673.5,439.5 C 676.518,439.335 679.518,439.502 682.5,440C 678.174,454.656 669.174,465.323 655.5,472C 652.188,472.938 648.855,473.771 645.5,474.5C 644.5,474.167 643.5,473.833 642.5,473.5C 646.46,468.205 650.793,463.205 655.5,458.5C 650.213,461.069 645.547,465.069 641.5,470.5C 641.947,459.808 646.947,451.642 656.5,446C 662.225,443.666 667.892,441.499 673.5,439.5 Z"/></g>
<g><path style="opacity:1" fill="#6d7653" d="M 628.5,437.5 C 629.8,440.024 629.8,442.691 628.5,445.5C 627.893,445.376 627.56,445.043 627.5,444.5C 628.468,442.393 628.802,440.059 628.5,437.5 Z"/></g>
<g><path style="opacity:1" fill="#868686" d="M 705.5,406.5 C 707.431,418.938 708.431,431.605 708.5,444.5C 708.509,456.072 707.509,467.406 705.5,478.5C 706.809,454.502 706.809,430.502 705.5,406.5 Z"/></g>
<g><path style="opacity:1" fill="#0e468b" d="M 262.5,457.5 C 265.955,473.403 263.122,488.403 254,502.5C 238.094,519.897 234.594,518.064 243.5,497C 243.389,495.278 242.889,495.112 242,496.5C 239.828,501.509 237.662,506.509 235.5,511.5C 230.724,498.492 232.557,486.492 241,475.5C 247.188,468.13 254.355,462.13 262.5,457.5 Z"/></g>
<g><path style="opacity:1" fill="#10468b" d="M 585.5,457.5 C 598.762,463.595 608.595,473.261 615,486.5C 618.487,494.945 618.321,503.278 614.5,511.5C 612.183,505.532 609.349,499.866 606,494.5C 608.047,500.306 609.88,506.306 611.5,512.5C 611.167,513.167 610.833,513.833 610.5,514.5C 598.039,507.25 590.206,496.584 587,482.5C 585.877,474.203 585.377,465.87 585.5,457.5 Z"/></g>
<g><path style="opacity:1" fill="#12468c" d="M 485.5,464.5 C 491.97,469.439 495.303,476.105 495.5,484.5C 494.326,494.546 492.826,504.546 491,514.5C 490.238,526.684 490.405,538.851 491.5,551C 491.167,552.167 490.833,553.333 490.5,554.5C 484.037,557.764 477.37,560.43 470.5,562.5C 469.828,558.812 468.995,555.145 468,551.5C 465.959,550.577 463.792,550.244 461.5,550.5C 462.023,555.592 463.023,560.592 464.5,565.5C 463.15,566.95 461.484,567.617 459.5,567.5C 458.531,563.392 456.864,559.559 454.5,556C 451.487,555.498 448.487,554.998 445.5,554.5C 447.282,560.066 449.616,565.399 452.5,570.5C 451.264,571.357 449.931,572.023 448.5,572.5C 444.226,567.467 440.56,561.967 437.5,556C 434.806,554.81 432.139,554.644 429.5,555.5C 433.375,562.084 437.375,568.584 441.5,575C 439.751,576.292 437.918,577.458 436,578.5C 426.711,566.089 417.545,553.589 408.5,541C 427.49,549.23 446.824,549.563 466.5,542C 472.563,539.271 477.397,535.104 481,529.5C 481.269,524.909 479.103,523.076 474.5,524C 450.637,540.391 425.97,541.724 400.5,528C 393.349,522.853 388.849,516.019 387,507.5C 386.175,503.789 386.341,500.122 387.5,496.5C 393.668,505.489 402.001,511.656 412.5,515C 431.594,519.796 449.594,517.129 466.5,507C 480.829,496.501 487.162,482.335 485.5,464.5 Z"/></g>
<g><path style="opacity:1" fill="#304e82" d="M 225.5,476.5 C 230.937,476.649 231.771,478.649 228,482.5C 224.708,481.449 223.875,479.449 225.5,476.5 Z"/></g>
<g><path style="opacity:1" fill="#2d4e82" d="M 620.5,476.5 C 625.041,476.815 626.041,478.649 623.5,482C 619.537,482.118 618.537,480.284 620.5,476.5 Z"/></g>
<g><path style="opacity:0.416" fill="#797979" d="M 705.5,479.5 C 705.468,484.391 704.801,489.057 703.5,493.5C 703.362,488.586 704.028,483.919 705.5,479.5 Z"/></g>
<g><path style="opacity:0.329" fill="#757575" d="M 145.5,475.5 C 147.462,483.271 148.795,491.271 149.5,499.5C 147.158,491.795 145.825,483.795 145.5,475.5 Z"/></g>
<g><path style="opacity:1" fill="#294d83" d="M 210.5,499.5 C 216.175,499.86 216.842,501.86 212.5,505.5C 209.61,504.163 208.943,502.163 210.5,499.5 Z"/></g>
<g><path style="opacity:1" fill="#375080" d="M 635.5,499.5 C 640.158,499.653 641.158,501.486 638.5,505C 634.537,505.118 633.537,503.284 635.5,499.5 Z"/></g>
<g><path style="opacity:0.427" fill="#7d7d7d" d="M 703.5,493.5 C 702.24,503.535 699.907,513.202 696.5,522.5C 698.074,512.542 700.407,502.875 703.5,493.5 Z"/></g>
<g><path style="opacity:1" fill="#11478b" d="M 183.5,507.5 C 195.424,506.652 206.757,508.818 217.5,514C 223.995,518.162 228.662,523.828 231.5,531C 225.711,529.113 220.044,526.613 214.5,523.5C 214.167,523.833 213.833,524.167 213.5,524.5C 219.299,527.802 224.966,531.302 230.5,535C 214.62,539.487 200.287,536.487 187.5,526C 182.466,521.301 177.8,516.301 173.5,511C 176.942,509.816 180.275,508.65 183.5,507.5 Z"/></g>
<g><path style="opacity:1" fill="#13478b" d="M 651.5,507.5 C 659.574,507.403 667.574,508.07 675.5,509.5C 664.336,529.088 647.336,538.254 624.5,537C 622.913,536.138 621.246,535.471 619.5,535C 624.497,531.166 629.83,527.833 635.5,525C 629.817,526.067 624.484,528.234 619.5,531.5C 619.167,531.333 618.833,531.167 618.5,531C 625.01,516.754 636.01,508.921 651.5,507.5 Z"/></g>
<g><path style="opacity:1" fill="#12478b" d="M 286.5,508.5 C 287.497,508.47 288.164,508.97 288.5,510C 293.925,528.303 292.091,545.803 283,562.5C 269.631,579.896 266.131,577.896 272.5,556.5C 272.154,555.304 271.654,555.304 271,556.5C 269.033,562.035 267.533,567.702 266.5,573.5C 257.538,556.835 258.705,540.835 270,525.5C 275.031,519.303 280.531,513.636 286.5,508.5 Z"/></g>
<g><path style="opacity:1" fill="#0d468c" d="M 561.5,508.5 C 577.918,518.775 587.251,533.609 589.5,553C 589.017,560.282 587.017,567.116 583.5,573.5C 577.162,549.35 576.162,549.516 580.5,574C 580.167,574.167 579.833,574.333 579.5,574.5C 571.043,569.253 565.21,561.919 562,552.5C 557.503,537.886 557.336,523.219 561.5,508.5 Z"/></g>
<g><path style="opacity:1" fill="#f5b70c" d="M 471.5,510.5 C 472.5,510.5 473.5,510.5 474.5,510.5C 474.657,511.873 474.49,513.207 474,514.5C 459.55,528.762 442.383,533.928 422.5,530C 421.065,527.733 421.398,525.733 423.5,524C 441.276,525.234 457.276,520.734 471.5,510.5 Z"/></g>
<g><path style="opacity:0.573" fill="#818181" d="M 149.5,499.5 C 152.03,504.785 153.364,510.452 153.5,516.5C 151.382,511.117 150.048,505.451 149.5,499.5 Z"/></g>
<g><path style="opacity:0.6" fill="#7d7d7c" d="M 154.5,521.5 C 155.117,521.611 155.617,521.944 156,522.5C 157.822,528.126 159.322,533.792 160.5,539.5C 157.593,533.901 155.593,527.901 154.5,521.5 Z"/></g>
<g><path style="opacity:1" fill="#e8b217" d="M 408.5,522.5 C 410.625,523.368 410.791,524.368 409,525.5C 407.317,524.824 407.15,523.824 408.5,522.5 Z"/></g>
<g><path style="opacity:1" fill="#e8b01a" d="M 413.5,523.5 C 417.73,522.831 419.563,524.498 419,528.5C 413.438,530.77 411.605,529.103 413.5,523.5 Z"/></g>
<g><path style="opacity:1" fill="#9c9c9c" d="M 696.5,522.5 C 694.874,529.04 692.874,535.373 690.5,541.5C 690.835,534.448 692.835,528.115 696.5,522.5 Z"/></g>
<g><path style="opacity:1" fill="#194988" d="M 248.5,534.5 C 252.724,534.052 254.391,535.719 253.5,539.5C 248.134,541.468 246.468,539.801 248.5,534.5 Z"/></g>
<g><path style="opacity:1" fill="#264c84" d="M 596.5,534.5 C 601.123,533.408 602.956,535.075 602,539.5C 596.42,541.752 594.587,540.085 596.5,534.5 Z"/></g>
<g><path style="opacity:0.427" fill="#838383" d="M 160.5,539.5 C 162.858,542.243 164.191,545.577 164.5,549.5C 162.6,546.482 161.267,543.149 160.5,539.5 Z"/></g>
<g><path style="opacity:1" fill="#11468b" d="M 318.5,547.5 C 332.19,567.411 334.023,588.411 324,610.5C 322,613.167 320,615.833 318,618.5C 316.511,611.921 315.511,605.254 315,598.5C 314.667,604.833 314.333,611.167 314,617.5C 305.757,609.609 301.924,599.942 302.5,588.5C 302.382,577.684 305.215,567.684 311,558.5C 313.51,554.805 316.01,551.138 318.5,547.5 Z"/></g>
<g><path style="opacity:1" fill="#09468c" d="M 529.5,547.5 C 530.496,547.414 531.329,547.748 532,548.5C 541.483,560.308 546.65,573.808 547.5,589C 547.569,600.137 543.736,609.637 536,617.5C 535.831,611.141 535.331,604.807 534.5,598.5C 533.714,605.174 532.88,611.841 532,618.5C 523.394,608.854 519.227,597.52 519.5,584.5C 519.573,578.394 520.407,572.394 522,566.5C 524.513,560.145 527.013,553.812 529.5,547.5 Z"/></g>
<g><path style="opacity:0.392" fill="#7f7f7e" d="M 684.5,556.5 C 681.992,562.849 678.992,568.849 675.5,574.5C 677.479,567.875 680.479,561.875 684.5,556.5 Z"/></g>
<g><path style="opacity:1" fill="#02458d" d="M 236.5,561.5 C 241.159,561.015 242.492,562.848 240.5,567C 235.728,567.81 234.395,565.977 236.5,561.5 Z"/></g>
<g><path style="opacity:1" fill="#244a87" d="M 608.5,561.5 C 613.123,560.408 614.956,562.075 614,566.5C 609.079,568.077 607.246,566.41 608.5,561.5 Z"/></g>
<g><path style="opacity:1" fill="#0c468c" d="M 219.5,572.5 C 239.038,569.945 254.372,576.611 265.5,592.5C 265.167,592.833 264.833,593.167 264.5,593.5C 259.005,591.052 253.339,589.552 247.5,589C 253.287,591.394 258.954,594.06 264.5,597C 238.645,606.201 216.645,600.368 198.5,579.5C 205.32,576.384 212.32,574.051 219.5,572.5 Z"/></g>
<g><path style="opacity:1" fill="#0c468c" d="M 612.5,572.5 C 626.138,571.496 639.138,573.829 651.5,579.5C 636.371,596.724 617.371,603.89 594.5,601C 591.007,600.058 587.674,598.725 584.5,597C 590.379,593.934 596.379,591.268 602.5,589C 596.393,589.255 590.559,590.755 585,593.5C 590.634,582.076 599.801,575.076 612.5,572.5 Z"/></g>
<g><path style="opacity:1" fill="#304f81" d="M 288.5,585.5 C 294.488,585.664 295.821,588.164 292.5,593C 286.403,593.147 285.07,590.647 288.5,585.5 Z"/></g>
<g><path style="opacity:1" fill="#294c84" d="M 557.5,585.5 C 560.833,584.833 562.833,586.167 563.5,589.5C 560.613,594.711 557.946,594.711 555.5,589.5C 555.752,587.927 556.418,586.594 557.5,585.5 Z"/></g>
<g><path style="opacity:0.541" fill="#828281" d="M 179.5,580.5 C 183.665,586.158 187.332,592.158 190.5,598.5C 185.833,593.176 182.166,587.176 179.5,580.5 Z"/></g>
<g><path style="opacity:1" fill="#244a86" d="M 274.5,609.5 C 279.668,610.339 280.668,612.839 277.5,617C 272.917,617.934 271.417,616.1 273,611.5C 273.717,610.956 274.217,610.289 274.5,609.5 Z"/></g>
<g><path style="opacity:1" fill="#1d4988" d="M 572.5,609.5 C 575.352,609.352 577.019,610.686 577.5,613.5C 575.43,618.586 573.096,618.753 570.5,614C 570.519,612.167 571.185,610.667 572.5,609.5 Z"/></g>
<g><path style="opacity:1" fill="#1e4988" d="M 373.5,616.5 C 374.497,616.47 375.164,616.97 375.5,618C 379.717,630.043 383.384,642.21 386.5,654.5C 387.978,654.238 389.311,654.571 390.5,655.5C 385.072,655.987 379.739,655.153 374.5,653C 375.938,652.781 377.271,652.281 378.5,651.5C 377.208,649.333 376.375,647 376,644.5C 372.949,643.188 369.783,642.188 366.5,641.5C 364.016,643.536 363.016,646.202 363.5,649.5C 365.103,649.312 366.437,649.812 367.5,651C 363.926,651.312 360.593,650.479 357.5,648.5C 358.628,647.738 359.795,647.071 361,646.5C 365.661,636.679 369.827,626.679 373.5,616.5 Z"/></g>
<g><path style="opacity:1" fill="#194989" d="M 476.5,616.5 C 481.316,626.082 485.482,636.082 489,646.5C 490.399,647.227 491.899,647.727 493.5,648C 488.386,650.279 483.052,651.612 477.5,652C 478.759,651.077 480.092,650.243 481.5,649.5C 480.399,647.358 479.399,645.192 478.5,643C 469.987,641.347 465.987,644.847 466.5,653.5C 470.893,653.457 471.226,653.957 467.5,655C 465.302,655.373 463.135,655.873 461,656.5C 460.5,656.167 460,655.833 459.5,655.5C 461.193,654.772 462.693,653.772 464,652.5C 467.876,640.37 472.043,628.37 476.5,616.5 Z"/></g>
<g><path style="opacity:1" fill="#2d4d83" d="M 389.5,617.5 C 395.206,617.171 400.872,617.505 406.5,618.5C 404.955,619.452 403.288,619.785 401.5,619.5C 401.334,629.839 401.5,640.172 402,650.5C 405.262,658.317 409.929,659.317 416,653.5C 417.406,642.564 417.906,631.564 417.5,620.5C 410.932,619.755 411.098,619.088 418,618.5C 419.833,618.833 421.667,619.167 423.5,619.5C 422.311,620.429 420.978,620.762 419.5,620.5C 419.85,631.549 419.35,642.549 418,653.5C 415.787,657.689 412.287,659.356 407.5,658.5C 401.036,659.022 396.536,656.355 394,650.5C 393.5,640.172 393.334,629.839 393.5,619.5C 391.517,619.843 390.183,619.176 389.5,617.5 Z"/></g>
<g><path style="opacity:1" fill="#194989" d="M 424.5,618.5 C 432.507,618.334 440.507,618.5 448.5,619C 454.544,621.932 456.044,626.432 453,632.5C 450.749,634.377 448.249,635.877 445.5,637C 452.572,640.653 455.239,646.486 453.5,654.5C 459.51,654.225 459.843,655.058 454.5,657C 451.697,657.755 449.03,657.422 446.5,656C 445.136,650.535 443.802,645.035 442.5,639.5C 440.827,637.914 438.827,637.247 436.5,637.5C 436.5,643.833 436.5,650.167 436.5,656.5C 438.288,656.215 439.955,656.548 441.5,657.5C 434.402,658.822 430.069,658.822 428.5,657.5C 428.5,645.167 428.5,632.833 428.5,620.5C 426.517,620.843 425.183,620.176 424.5,618.5 Z"/></g>
<g><path style="opacity:1" fill="#f1b511" d="M 436.5,620.5 C 439.247,620.187 441.914,620.52 444.5,621.5C 445.6,625.442 445.767,629.442 445,633.5C 442.581,635.585 439.747,636.585 436.5,636.5C 436.5,631.167 436.5,625.833 436.5,620.5 Z"/></g>
<g><path style="opacity:1" fill="#10468b" d="M 278.5,623.5 C 293.841,621.28 306.841,625.613 317.5,636.5C 311.771,636.412 305.771,636.579 299.5,637C 305.952,637.797 312.285,639.131 318.5,641C 300.115,654.133 280.449,656.133 259.5,647C 254.804,644.99 250.471,642.49 246.5,639.5C 256.154,632.006 266.821,626.673 278.5,623.5 Z"/></g>
<g><path style="opacity:1" fill="#10468b" d="M 553.5,623.5 C 572.193,622.62 588.859,627.954 603.5,639.5C 587.424,650.693 569.757,654.526 550.5,651C 543.229,649.035 536.896,645.535 531.5,640.5C 537.723,638.825 544.056,637.658 550.5,637C 544.5,636.667 538.5,636.333 532.5,636C 538.648,630.265 545.648,626.098 553.5,623.5 Z"/></g>
<g><path style="opacity:1" fill="#eab219" d="M 369.5,629.5 C 370.376,629.369 371.043,629.702 371.5,630.5C 372.74,634.056 374.073,637.556 375.5,641C 372.493,641.301 369.493,641.135 366.5,640.5C 367.699,636.901 368.699,633.235 369.5,629.5 Z"/></g>
<g><path style="opacity:1" fill="#ecb315" d="M 472.5,629.5 C 475.292,632.835 476.959,636.835 477.5,641.5C 474.833,641.833 472.167,642.167 469.5,642.5C 470.707,638.214 471.707,633.88 472.5,629.5 Z"/></g>
<g><path style="opacity:0.016" fill="#5a5a59" d="M 609.5,657.5 C 608.415,659.587 606.749,660.92 604.5,661.5C 605.585,659.413 607.251,658.08 609.5,657.5 Z"/></g>
<g><path style="opacity:0.392" fill="#767674" d="M 561.5,690.5 C 558.322,693.258 554.655,695.258 550.5,696.5C 553.675,693.672 557.342,691.672 561.5,690.5 Z"/></g>
<g><path style="opacity:0.18" fill="#787877" d="M 550.5,696.5 C 546.325,698.753 541.991,700.753 537.5,702.5C 541.113,699.197 545.446,697.197 550.5,696.5 Z"/></g>
<g><path style="opacity:0.439" fill="#747373" d="M 537.5,702.5 C 532.653,705.582 527.319,707.582 521.5,708.5C 526.537,705.929 531.871,703.929 537.5,702.5 Z"/></g>
<g><path style="opacity:1" fill="#838382" d="M 324.5,706.5 C 329.517,707.393 334.183,709.06 338.5,711.5C 333.362,710.921 328.695,709.254 324.5,706.5 Z"/></g>
<g><path style="opacity:0.078" fill="#747473" d="M 509.5,712.5 C 502.605,715.726 495.272,717.726 487.5,718.5C 487.611,717.883 487.944,717.383 488.5,717C 495.513,715.49 502.513,713.99 509.5,712.5 Z"/></g>
<g><path style="opacity:0.149" fill="#717171" d="M 486.5,718.5 C 474.269,722.407 461.603,724.407 448.5,724.5C 448.918,723.778 449.584,723.278 450.5,723C 462.627,722.317 474.627,720.817 486.5,718.5 Z"/></g>
<g><path style="opacity:0.475" fill="#717170" d="M 407.5,724.5 C 420.167,724.5 432.833,724.5 445.5,724.5C 432.854,726.653 420.187,726.653 407.5,724.5 Z"/></g>
</svg>
