<?xml version="1.0" encoding="UTF-8" standalone="no"?>
<svg
   xmlns:dc="http://purl.org/dc/elements/1.1/"
   xmlns:cc="http://creativecommons.org/ns#"
   xmlns:rdf="http://www.w3.org/1999/02/22-rdf-syntax-ns#"
   xmlns:svg="http://www.w3.org/2000/svg"
   xmlns="http://www.w3.org/2000/svg"
   viewBox="0 0 933.33331 573.02002"
   height="573.02002"
   width="933.33331"
   xml:space="preserve"
   id="svg2"
   version="1.1"><metadata
     id="metadata8"><rdf:RDF><cc:Work
         rdf:about=""><dc:format>image/svg+xml</dc:format><dc:type
           rdf:resource="http://purl.org/dc/dcmitype/StillImage" /></cc:Work></rdf:RDF></metadata><defs
     id="defs6"><clipPath
       id="clipPath26"
       clipPathUnits="userSpaceOnUse"><path
         id="path24"
         d="M 0,0 H 700 V 429.764 H 0 Z" /></clipPath></defs><g
     transform="matrix(1.3333333,0,0,-1.3333333,0,573.02)"
     id="g10"><g
       transform="translate(299.673,429.255)"
       id="g12"><path
         id="path14"
         style="fill:#505256;fill-opacity:1;fill-rule:nonzero;stroke:none"
         d="m 0,0 v -44.15 h 6.848 v 18.225 h 8.834 v 6.308 H 6.848 v 13.301 h 11.27 V 0 Z" /></g><g
       transform="translate(342.7713,429.2505)"
       id="g16"><path
         id="path18"
         style="fill:#505256;fill-opacity:1;fill-rule:nonzero;stroke:none"
         d="M 0,0 -4.676,-31.346 -9.724,0 h -9.519 v -44.15 h 5.978 v 31.228 l 5.097,-31.228 h 6.48 l 4.727,31.668 V -44.15 h 6.478 l 0,44.15 z" /></g><g
       id="g20"><g
         clip-path="url(#clipPath26)"
         id="g22"><g
           transform="translate(378.7568,404.9698)"
           id="g28"><path
             id="path30"
             style="fill:#505256;fill-opacity:1;fill-rule:nonzero;stroke:none"
             d="m 0,0 v -13.563 h 3.928 c 2.294,0 3.539,1.071 3.539,4.361 v 3.836 C 7.467,-1.268 6.164,0 3.055,0 Z M 0,17.974 V 6.308 h 2.68 c 2.552,0 4.105,1.133 4.105,4.672 v 2.454 c 0,3.156 -1.051,4.54 -3.484,4.54 z m 13.643,-3.847 v -1.583 c 0,-4.528 -1.375,-7.44 -4.43,-8.886 3.675,-1.449 5.113,-4.792 5.113,-9.465 v -3.592 c 0,-6.813 -3.558,-10.471 -10.398,-10.471 H -6.847 V 24.282 H 3.487 c 7.101,0 10.156,-3.343 10.156,-10.155" /></g><g
           transform="translate(405.9727,395.255)"
           id="g32"><path
             id="path34"
             style="fill:#505256;fill-opacity:1;fill-rule:nonzero;stroke:none"
             d="m 0,0 c 0,-3.154 1.368,-4.349 3.561,-4.349 2.173,0 3.54,1.195 3.54,4.349 v 23.842 c 0,3.154 -1.367,4.359 -3.54,4.359 C 1.368,28.201 0,26.996 0,23.842 Z m -6.847,23.401 c 0,7.074 3.665,11.109 10.408,11.109 6.721,0 10.388,-4.035 10.388,-11.109 V 0.449 c 0,-7.073 -3.667,-11.117 -10.388,-11.117 -6.743,0 -10.408,4.044 -10.408,11.117 z" /></g><g
           transform="translate(426.8437,429.254)"
           id="g36"><path
             id="path38"
             style="fill:#505256;fill-opacity:1;fill-rule:nonzero;stroke:none"
             d="m 0,0 h 6.846 v -37.845 h 11.269 v -6.307 H 0 Z" /></g><g
           transform="translate(457.2861,410.6476)"
           id="g40"><path
             id="path42"
             style="fill:#505256;fill-opacity:1;fill-rule:nonzero;stroke:none"
             d="M 0,0 H 9.399 V -6.308 H 0 V -19.24 h 11.827 v -6.309 H -6.847 V 18.604 H 11.827 V 12.295 L 0,12.295 Z" /></g><g
           transform="translate(486.001,429.254)"
           id="g44"><path
             id="path46"
             style="fill:#505256;fill-opacity:1;fill-rule:nonzero;stroke:none"
             d="M 0,0 H 21.165 V -6.309 H 14.011 V -44.152 H 7.165 v 37.843 l -7.165,0 z" /></g><g
           transform="translate(518.9307,395.255)"
           id="g48"><path
             id="path50"
             style="fill:#505256;fill-opacity:1;fill-rule:nonzero;stroke:none"
             d="m 0,0 c 0,-3.154 1.366,-4.349 3.559,-4.349 2.175,0 3.542,1.195 3.542,4.349 v 23.842 c 0,3.154 -1.367,4.359 -3.542,4.359 C 1.366,28.201 0,26.996 0,23.842 Z m -6.847,23.401 c 0,7.074 3.665,11.109 10.406,11.109 6.723,0 10.388,-4.035 10.388,-11.109 V 0.449 c 0,-7.073 -3.665,-11.117 -10.388,-11.117 -6.741,0 -10.406,4.044 -10.406,11.117 z" /></g><g
           transform="translate(546.6465,385.1007)"
           id="g52"><path
             id="path54"
             style="fill:#505256;fill-opacity:1;fill-rule:nonzero;stroke:none"
             d="M 0,0 H -6.849 V 44.152 H 0 V 25.235 h 7.783 v 18.917 h 6.974 V 0 H 7.783 V 18.917 H 0 Z" /></g><g
           transform="translate(110.6455,72.0197)"
           id="g56"><path
             id="path58"
             style="fill:#ffffff;fill-opacity:1;fill-rule:nonzero;stroke:none"
             d="m 0,0 c -60.724,0 -110.098,46.793 -110.098,104.283 0,57.551 49.374,104.38 110.098,104.38 h 138.793 c -3.758,8.385 -5.726,17.553 -5.726,26.98 0,37.753 31.786,68.307 70.816,68.307 h 228.705 c 20.696,0 40.971,-4.196 60.223,-12.176 18.545,-7.711 35.307,-18.675 49.812,-32.614 14.542,-14.009 26,-30.241 34.059,-48.268 8.394,-18.836 12.673,-38.687 12.673,-59.05 0,-20.186 -4.215,-39.948 -12.528,-58.732 C 568.856,75.12 557.515,58.892 543.144,44.861 528.845,30.859 512.265,19.833 493.95,12.114 474.872,4.052 454.831,0 434.394,0 Z" /></g><g
           transform="translate(540.7305,86.8331)"
           id="g60"><path
             id="path62"
             style="fill:#f25d1c;fill-opacity:1;fill-rule:nonzero;stroke:none"
             d="M 0,0 C 77.465,-2.428 144.473,61.361 144.473,137.03 144.473,212.699 77.817,275.535 0,274.169 l -226.206,0.333 c -30.853,0 -56.006,-24.086 -56.006,-53.679 0,-16.868 8.17,-31.921 20.905,-41.771 H -430.08 c -52.556,0 -95.306,-40.179 -95.306,-89.588 0,-49.41 42.75,-89.464 95.306,-89.464 z" /></g><g
           transform="translate(109.251,23.4347)"
           id="g64"><path
             id="path66"
             style="fill:#f47216;fill-opacity:1;fill-rule:nonzero;stroke:none"
             d="m 0,0 -26.089,-12.168 c 1.654,-3.415 2.533,-7.207 2.533,-11.261 H 5.23 C 5.23,-15.062 3.371,-7.093 0,0" /></g><g
           transform="translate(92.3213,39.6007)"
           id="g68"><path
             id="path70"
             style="fill:#ee2629;fill-opacity:1;fill-rule:nonzero;stroke:none"
             d="m 0,0 -16.195,-19.224 c 2.993,-2.507 5.374,-5.58 7.029,-9.102 l 29.349,13.668 c -9.335,20.13 -29.771,34.106 -53.452,34.106 -32.569,0 -59.052,-26.466 -59.052,-59.044 h 7.261 c 0,28.569 23.241,51.773 51.791,51.773 C -20.563,12.177 -9.014,7.622 0,0" /></g><g
           transform="translate(59.0508,26.6632)"
           id="g72"><path
             id="path74"
             style="fill:#f47216;fill-opacity:1;fill-rule:nonzero;stroke:none"
             d="M 0,0 C 6.488,0 12.508,-2.354 17.076,-6.28 L 33.271,12.933 C 24.255,20.553 12.708,25.117 0,25.117 c -28.551,0 -51.792,-23.202 -51.792,-51.78 h 25.101 C -26.602,-11.987 -14.712,0 0,0" /></g><g
           transform="translate(59.0508,26.6632)"
           id="g76"><path
             id="path78"
             style="fill:#f9b215;fill-opacity:1;fill-rule:nonzero;stroke:none"
             d="m 0,0 c 2.389,0 4.709,-0.313 6.901,-0.934 l 3.226,12.131 C 6.901,12.079 3.495,12.564 0,12.564 c -21.63,0 -39.191,-17.605 -39.191,-39.227 h 12.5 C -26.602,-11.987 -14.712,0 0,0" /></g><g
           transform="translate(85.6953,0.0021)"
           id="g80"><path
             id="path82"
             style="fill:#f1ef1d;fill-opacity:1;fill-rule:nonzero;stroke:none"
             d="M 0,0 C 0,14.676 -11.988,26.664 -26.646,26.664 -41.356,26.664 -53.247,14.676 -53.337,0 Z" /></g><g
           transform="translate(136.1494,15.9581)"
           id="g84"><path
             id="path86"
             style="fill:#505256;fill-opacity:1;fill-rule:nonzero;stroke:none"
             d="M 0,0 H 6.974 L 3.459,23.274 Z M 16.455,-14.587 H 9.212 l -1.249,8.376 h -8.872 l -1.248,-8.376 h -6.651 l 7.352,45.984 H 9.103 Z" /></g><g
           transform="translate(179.9692,7.9357)"
           id="g88"><path
             id="path90"
             style="fill:#505256;fill-opacity:1;fill-rule:nonzero;stroke:none"
             d="m 0,0 c 0.781,-0.038 1.68,-0.038 2.498,-0.038 2.266,0 4.098,0.866 4.098,4.406 v 35.056 h 7.243 V 4.881 c 0,-9.166 -4.917,-11.55 -10.38,-11.55 -1.339,0 -2.292,0 -3.459,0.108 z" /></g><g
           transform="translate(213.5293,15.9581)"
           id="g92"><path
             id="path94"
             style="fill:#505256;fill-opacity:1;fill-rule:nonzero;stroke:none"
             d="M 0,0 H 6.974 L 3.459,23.274 Z M 16.48,-14.587 H 9.166 l -1.231,8.376 h -8.869 l -1.25,-8.376 h -6.605 l 7.334,45.984 H 9.132 Z" /></g><g
           transform="translate(252.0024,27.0148)"
           id="g96"><path
             id="path98"
             style="fill:#505256;fill-opacity:1;fill-rule:nonzero;stroke:none"
             d="m 0,0 h 10.12 v -14.567 c 0,-7.368 -3.695,-11.585 -10.757,-11.585 -7.127,0 -10.766,4.217 -10.766,11.585 V 9.338 c 0,7.35 3.639,11.53 10.766,11.53 7.062,0 10.757,-4.18 10.757,-11.53 V 4.845 H 3.282 v 4.951 c 0,3.281 -1.42,4.53 -3.759,4.53 -2.292,0 -3.717,-1.249 -3.717,-4.53 V -15.08 c 0,-3.26 1.425,-4.421 3.717,-4.421 2.339,0 3.759,1.161 3.759,4.421 v 8.503 l -3.282,0 z" /></g><g
           transform="translate(281.8599,40.8107)"
           id="g100"><path
             id="path102"
             style="fill:#505256;fill-opacity:1;fill-rule:nonzero;stroke:none"
             d="m 0,0 v -14.146 h 2.849 c 2.678,0 4.368,1.197 4.368,4.881 v 4.512 C 7.217,-1.455 6.084,0 3.495,0 Z m 7.916,-39.442 c -0.374,1.194 -0.635,1.912 -0.635,5.653 v 7.234 c 0,4.277 -1.466,5.824 -4.747,5.824 H 0 V -39.442 H -7.181 V 6.553 H 3.694 c 7.531,0 10.732,-3.479 10.732,-10.552 v -3.622 c 0,-4.718 -1.51,-7.847 -4.711,-9.318 3.576,-1.531 4.772,-5.015 4.772,-9.815 v -7.107 c 0,-2.211 0.053,-3.838 0.809,-5.581 z" /></g><g
           transform="translate(315.834,15.9581)"
           id="g104"><path
             id="path106"
             style="fill:#505256;fill-opacity:1;fill-rule:nonzero;stroke:none"
             d="M 0,0 H 6.974 L 3.487,23.274 Z M 16.517,-14.587 H 9.183 l -1.212,8.376 h -8.852 l -1.278,-8.376 h -6.63 l 7.395,45.984 H 9.13 Z" /></g><g
           transform="translate(349.998,34.7023)"
           id="g108"><path
             id="path110"
             style="fill:#505256;fill-opacity:1;fill-rule:nonzero;stroke:none"
             d="m 0,0 v -33.332 h -6.488 v 45.987 h 9.05 l 7.441,-27.483 v 27.483 h 6.425 V -33.332 H 9.041 Z" /></g><path
           id="path112"
           style="fill:#505256;fill-opacity:1;fill-rule:nonzero;stroke:none"
           d="m 397.545,47.361 h 7.242 V 1.375 h -7.242 z" /><g
           transform="translate(424.3857,34.7023)"
           id="g114"><path
             id="path116"
             style="fill:#505256;fill-opacity:1;fill-rule:nonzero;stroke:none"
             d="M 0,0 V -33.332 H -6.552 V 12.655 H 2.525 L 9.967,-14.828 V 12.655 H 16.4 V -33.332 H 8.952 Z" /></g><path
           id="path118"
           style="fill:#505256;fill-opacity:1;fill-rule:nonzero;stroke:none"
           d="m 453.837,47.361 h 7.218 V 1.375 h -7.218 z" /><g
           transform="translate(472.0996,47.3585)"
           id="g120"><path
             id="path122"
             style="fill:#505256;fill-opacity:1;fill-rule:nonzero;stroke:none"
             d="M 0,0 H 22.307 V -6.552 H 14.801 V -45.987 H 7.567 V -6.552 H 0 Z" /></g><path
           id="path124"
           style="fill:#505256;fill-opacity:1;fill-rule:nonzero;stroke:none"
           d="m 505.484,47.361 h 7.191 V 1.375 h -7.191 z" /><g
           transform="translate(532.71,15.9581)"
           id="g126"><path
             id="path128"
             style="fill:#505256;fill-opacity:1;fill-rule:nonzero;stroke:none"
             d="M 0,0 H 6.974 L 3.459,23.274 Z M 16.48,-14.587 H 9.211 l -1.275,8.376 h -8.844 l -1.25,-8.376 h -6.606 l 7.37,45.984 H 9.13 Z" /></g><g
           transform="translate(555.8525,47.3585)"
           id="g130"><path
             id="path132"
             style="fill:#505256;fill-opacity:1;fill-rule:nonzero;stroke:none"
             d="M 0,0 H 22.278 V -6.552 H 14.775 V -45.987 H 7.53 V -6.552 H 0 Z" /></g><path
           id="path134"
           style="fill:#505256;fill-opacity:1;fill-rule:nonzero;stroke:none"
           d="m 589.18,47.361 h 7.28 V 1.375 h -7.28 z" /><g
           transform="translate(620.4717,9.8654)"
           id="g136"><path
             id="path138"
             style="fill:#505256;fill-opacity:1;fill-rule:nonzero;stroke:none"
             d="m 0,0 5.464,37.492 h 6.668 L 5.084,-8.492 H -5.673 l -7.126,45.984 h 7.273 z" /></g><g
           transform="translate(651.0654,27.9982)"
           id="g140"><path
             id="path142"
             style="fill:#505256;fill-opacity:1;fill-rule:nonzero;stroke:none"
             d="M 0,0 H 9.938 V -6.561 H 0 v -13.498 h 12.498 v -6.569 H -7.217 V 19.356 H 12.498 V 12.815 L 0,12.815 Z" /></g><g
           transform="translate(589.7627,307.6593)"
           id="g144"><path
             id="path146"
             style="fill:#ffffff;fill-opacity:1;fill-rule:nonzero;stroke:none"
             d="m 0,0 c 0,-22.71 -19.638,-41.303 -43.623,-41.303 h -231.616 c -23.994,0 -43.621,18.593 -43.621,41.303 0,22.709 19.627,41.304 43.621,41.304 H -43.623 C -19.638,41.304 0,22.709 0,0" /></g><g
           transform="translate(621.0518,176.1046)"
           id="g148"><path
             id="path150"
             style="fill:#346ebf;fill-opacity:1;fill-rule:nonzero;stroke:none"
             d="m 0,0 c 0,-42.48 -37.332,-77.231 -82.939,-77.231 h -427.467 c -45.599,0 -82.93,34.751 -82.93,77.231 0,42.481 37.331,77.232 82.93,77.232 H -82.939 C -37.332,77.232 0,42.481 0,0" /></g><g
           transform="translate(323.1797,324.9747)"
           id="g152"><path
             id="path154"
             style="fill:#346ebf;fill-opacity:1;fill-rule:nonzero;stroke:none"
             d="m 0,0 c -3.821,0 -6.408,-0.449 -7.774,-1.348 -1.375,-0.9 -2.695,-3.029 -3.991,-6.39 -1.295,-3.388 -1.591,-5.508 -0.881,-6.345 0.709,-0.835 3.137,-1.258 7.289,-1.258 4.396,0 7.289,0.404 8.69,1.205 1.393,0.799 2.707,2.794 3.937,5.992 1.402,3.66 1.697,5.932 0.907,6.813 C 7.37,-0.449 4.654,0 0,0 m -29.083,-28.21 h 8.97 c -1.197,-3.118 -1.43,-5.033 -0.71,-5.732 0.729,-0.72 3.254,-1.07 7.548,-1.07 4.692,0 7.721,0.485 9.104,1.472 1.375,0.981 2.957,3.767 4.72,8.349 l 2.749,7.18 H 3.127 c -2.786,-3.225 -7.118,-4.825 -13.041,-4.825 -6.632,0 -10.729,0.935 -12.275,2.821 -1.536,1.879 -1.242,5.591 0.879,11.118 2.472,6.46 5.34,10.81 8.575,13.041 3.245,2.236 8.331,3.35 15.258,3.35 8.988,0 14.047,-1.303 15.171,-3.899 1.134,-2.58 -0.415,-9.391 -4.636,-20.374 -4.546,-11.855 -8.34,-19.097 -11.387,-21.747 -3.056,-2.653 -9.096,-3.983 -18.134,-3.983 -6.968,0 -11.397,0.892 -13.266,2.66 -1.859,1.788 -1.87,5.097 -0.008,9.949 z" /></g><g
           transform="translate(383.6123,332.0753)"
           id="g156"><path
             id="path158"
             style="fill:#346ebf;fill-opacity:1;fill-rule:nonzero;stroke:none"
             d="m 0,0 -18.872,-49.177 h -9.213 l 15.745,41.034 -17.497,-12.68 -3.173,6.022 L -11.639,0 Z" /></g><g
           transform="translate(390.5957,291.7648)"
           id="g160"><path
             id="path162"
             style="fill:#346ebf;fill-opacity:1;fill-rule:nonzero;stroke:none"
             d="m 0,0 -3.403,-8.86 h -8.144 L -8.141,0 Z" /></g><g
           transform="translate(430.248,332.0753)"
           id="g164"><path
             id="path166"
             style="fill:#346ebf;fill-opacity:1;fill-rule:nonzero;stroke:none"
             d="m 0,0 -18.891,-49.177 h -9.213 l 15.756,41.034 -17.488,-12.68 -3.182,6.022 L -11.638,0 Z" /></g><g
           transform="translate(471.0391,324.2208)"
           id="g168"><path
             id="path170"
             style="fill:#346ebf;fill-opacity:1;fill-rule:nonzero;stroke:none"
             d="M 0,0 -5.086,-13.266 H 16.68 l -3.011,-7.843 H -8.105 l -7.766,-20.213 h -9.21 L -6.192,7.854 H 25.964 L 22.952,0 Z" /></g><g
           transform="translate(562.3301,332.0753)"
           id="g172"><path
             id="path174"
             style="fill:#346ebf;fill-opacity:1;fill-rule:nonzero;stroke:none"
             d="m 0,0 -18.892,-49.177 h -9.212 l 10.301,26.808 c 0.81,2.131 1.805,4.566 2.974,7.28 l 1.581,3.665 1.573,3.641 h -0.279 l -2.426,-3.425 -2.372,-3.423 c -2.176,-3.074 -3.819,-5.347 -4.923,-6.803 l -21.327,-27.743 h -8.395 l -0.223,27.528 c 0,1.51 0.081,3.783 0.269,6.812 l 0.214,3.413 0.189,3.381 h -0.278 l -1.195,-3.56 -1.214,-3.602 c -0.917,-2.788 -1.76,-5.178 -2.524,-7.164 l -10.3,-26.808 h -9.212 L -56.78,0 h 15.009 l -0.053,-22.772 c -0.029,-1.582 -0.109,-3.847 -0.28,-6.804 l -0.242,-3.434 -0.188,-3.379 h 0.313 l 2.337,3.379 2.353,3.398 c 1.978,2.849 3.614,5.114 4.881,6.766 L -15.341,0 Z" /></g><g
           transform="translate(97.9644,182.0382)"
           id="g176"><path
             id="path178"
             style="fill:#ffffff;fill-opacity:1;fill-rule:nonzero;stroke:none"
             d="m 0,0 22.279,0.072 c 5.31,0.017 9.185,0.925 11.602,2.749 2.408,1.799 4.645,5.43 6.721,10.884 2.085,5.571 2.697,9.148 1.824,10.785 -0.898,1.591 -3.864,2.398 -8.925,2.381 L 10.147,26.797 Z m -30.133,-38.789 28.65,77.999 41.115,0.123 c 10.028,0.038 16.32,-1.6 18.845,-4.895 C 61.01,31.12 60.661,25.117 57.345,16.446 54.377,8.564 51.387,3.182 48.394,0.261 45.428,-2.633 40.763,-4.656 34.491,-5.781 l -0.18,-0.502 c 8.844,-0.511 12.043,-5.544 8.403,-15.098 l -6.48,-17.22 -16.087,-0.034 5.385,14.234 c 3.028,8.028 0.413,12.043 -7.909,12.006 l -22.332,-0.052 -9.922,-26.295 z" /></g><g
           transform="translate(176.564,167.6974)"
           id="g180"><path
             id="path182"
             style="fill:#ffffff;fill-opacity:1;fill-rule:nonzero;stroke:none"
             d="m 0,0 c -7.728,-0.019 -12.331,-2.264 -14.246,-7.386 -1.364,-3.534 -1.608,-5.851 -0.438,-6.957 1.195,-1.105 4.34,-1.627 9.454,-1.607 8.348,0.016 13.525,2.713 15.557,8.068 C 12.392,-2.392 8.897,0.036 0,0 m -3.658,14.621 -14.019,-0.036 c 2.472,6.569 5.723,10.956 9.769,13.168 4.008,2.209 10.757,3.332 20.211,3.368 10.298,0.036 16.741,-1.303 19.366,-3.98 2.616,-2.705 2.508,-7.855 -0.404,-15.466 l -12.977,-36.11 -13.687,-0.054 2.966,7.882 0.025,-0.332 c -4.679,-5.456 -11.807,-8.197 -21.342,-8.233 -13.839,-0.036 -19.016,5.948 -14.773,17.184 4.277,11.359 13.487,17.047 27.678,17.101 9.454,0.018 14.434,-2.04 14.892,-6.183 h 0.233 l 3.343,8.852 c 1.609,4.278 1.834,6.82 0.817,8.197 -1.042,1.402 -3.989,2.083 -8.816,2.065 C 2.65,22.01 -1.735,19.727 -3.658,14.621" /></g><g
           transform="translate(246.6157,188.3204)"
           id="g184"><path
             id="path186"
             style="fill:#ffffff;fill-opacity:1;fill-rule:nonzero;stroke:none"
             d="m 0,0 c -5.114,-0.017 -8.835,-0.79 -11.164,-2.857 -2.298,-2.093 -4.745,-6.497 -7.331,-13.344 -2.993,-7.938 -4.16,-13.024 -3.479,-15.307 0.63,-2.281 3.596,-3.423 8.862,-3.404 5.49,0.016 9.451,1.141 11.835,3.423 2.381,2.228 5.122,7.423 8.178,15.538 2.526,6.705 3.343,10.541 2.434,12.636 C 8.429,-1.23 5.355,0.02 0,0 m 38.651,32.982 -28.146,-78.041 -13.346,-0.036 3.163,9.355 0.089,-0.316 c -5.067,-6.37 -12.104,-9.579 -21.081,-9.579 -9.05,-0.036 -14.316,1.915 -15.738,5.842 -1.455,3.937 -0.222,12.32 4.368,24.399 3.667,9.743 7.793,16.517 12.386,20.328 4.592,3.81 10.926,5.707 18.989,5.734 9.337,0.02 14.1,-2.769 14.28,-8.403 l 0.26,0.054 11.079,30.627 z" /></g><g
           transform="translate(309.9526,221.2853)"
           id="g188"><path
             id="path190"
             style="fill:#ffffff;fill-opacity:1;fill-rule:nonzero;stroke:none"
             d="m 0,0 -4.099,-11.01 -13.839,0.02 4.099,11.026 z m -8.376,-23.186 -20.003,-54.838 -13.778,-0.037 19.968,54.837 z" /></g><g
           transform="translate(333.7095,188.3741)"
           id="g192"><path
             id="path194"
             style="fill:#ffffff;fill-opacity:1;fill-rule:nonzero;stroke:none"
             d="m 0,0 c -5.724,-0.019 -9.768,-1.015 -12.068,-3.001 -2.328,-1.969 -4.853,-6.561 -7.614,-13.811 -3.109,-8.271 -4.34,-13.427 -3.611,-15.505 0.701,-2.048 4.016,-3.074 9.956,-3.055 5.754,0 9.787,1.104 12.15,3.308 2.329,2.192 5.059,7.441 8.199,15.745 2.675,7.001 3.584,11.474 2.73,13.425 C 8.933,-0.942 5.681,0.036 0,0 M 4.071,10.405 C 15.205,10.443 21.846,8.78 24.058,5.392 26.206,2.004 25.216,-5.122 21.092,-16.042 16.491,-28.245 11.782,-36.208 6.946,-40.02 c -4.787,-3.808 -12.617,-5.723 -23.492,-5.759 -11.772,-0.036 -18.726,1.708 -20.874,5.214 -2.148,3.513 -0.934,11.269 3.603,23.256 4.368,11.513 8.905,19.027 13.614,22.467 4.701,3.459 12.825,5.214 24.274,5.247" /></g><g
           transform="translate(436.3389,171.2765)"
           id="g196"><path
             id="path198"
             style="fill:#ffffff;fill-opacity:1;fill-rule:nonzero;stroke:none"
             d="m 0,0 15.582,0.038 -1.015,-2.707 c -4.098,-10.936 -8.843,-18.01 -14.188,-21.215 -5.385,-3.22 -15.163,-4.846 -29.343,-4.881 -16.141,-0.072 -25.128,2.434 -26.934,7.495 -1.797,5.031 1.402,18.584 9.689,40.611 4.853,12.976 10.587,21.505 17.126,25.596 6.571,4.105 17.857,6.172 33.874,6.225 11.664,0.036 18.817,-1.607 21.468,-4.942 2.643,-3.353 2.12,-10.011 -1.636,-19.994 l -0.602,-1.79 -15.592,-0.035 0.756,2.004 c 1.951,5.157 2.157,8.438 0.701,9.857 -1.483,1.438 -5.815,2.139 -13.004,2.123 -9.626,-0.029 -15.843,-1.187 -18.604,-3.453 -2.802,-2.282 -6.283,-8.987 -10.468,-20.148 -5.644,-15.045 -8.116,-23.95 -7.414,-26.699 0.692,-2.761 5.804,-4.125 15.293,-4.072 7.703,0.019 12.997,0.791 15.882,2.328 2.847,1.545 5.285,4.917 7.234,10.128 z" /></g><g
           transform="translate(491.3301,220.9523)"
           id="g200"><path
             id="path202"
             style="fill:#ffffff;fill-opacity:1;fill-rule:nonzero;stroke:none"
             d="m 0,0 -4.135,-10.92 -13.694,-0.056 4.133,10.922 z m -8.844,-23.385 -20.642,-54.621 -13.706,-0.055 20.651,54.649 z" /></g><g
           transform="translate(534.1045,198.256)"
           id="g204"><path
             id="path206"
             style="fill:#ffffff;fill-opacity:1;fill-rule:nonzero;stroke:none"
             d="m 0,0 -3.845,-10.056 -22.477,-0.071 -10.558,-27.786 c -1.97,-5.125 -0.862,-7.686 3.234,-7.669 4.51,0 7.972,3.102 10.317,9.321 l 0.846,2.211 11.898,0.034 -1.053,-2.794 c -0.978,-2.525 -1.887,-4.701 -2.73,-6.524 -3.983,-8.448 -12.242,-12.689 -24.724,-12.744 -12.466,-0.034 -16.627,5.365 -12.493,16.214 l 11.279,29.699 -7.557,-0.034 3.838,10.072 7.556,0.02 4.711,12.391 13.981,0.036 -4.706,-12.373 z" /></g><g
           transform="translate(534.4463,136.8224)"
           id="g208"><path
             id="path210"
             style="fill:#ffffff;fill-opacity:1;fill-rule:nonzero;stroke:none"
             d="m 0,0 c -40.539,-10.02 -37.222,-23.257 -36.639,-24.643 0.502,-1.283 1.457,-2.13 2.472,-2.632 3.144,-1.582 7.334,-0.649 9.454,0.44 7.503,3.739 15.699,13.465 15.699,13.465 2.159,2.361 8.844,13.279 8.844,13.279 M 2.624,60.886 H 17.399 L 15.127,20.732 42.464,61.013 h 14.765 c 0,0 -22.063,-38.197 -44.549,-63.773 0,0 -16.112,-21.602 -31.957,-28.659 -4.501,-2.002 -18.233,-5.671 -20.588,5.843 -0.144,0.826 -1.716,7.639 8.816,15.502 5.805,4.368 15.611,8.761 31.868,11.746 L 2.68,6.533 Z" /></g></g></g></g></svg>